<svg xmlns="http://www.w3.org/2000/svg" xml:space="preserve" width="50px" height="50px" style="shape-rendering:geometricPrecision; text-rendering:geometricPrecision; image-rendering:optimizeQuality; fill-rule:evenodd; clip-rule:evenodd" viewBox="0 0 50 50" xmlns:xlink="http://www.w3.org/1999/xlink">
  <path d="M26.4682 38.0752c-0.49726,0.401587 -1.09964,0.708684 -1.80006,0.910659l0 0.00118114c-0.655532,0.190163 -1.40556,0.29056 -2.23944,0.302372 -0.843334,0 -1.69494,-0.0992157 -2.50756,-0.328357 -0.760654,-0.213786 -1.4339,-0.5386 -2.0103,-0.968534l-0.00118114 0.00118114c-0.630729,-0.448833 -1.11145,-0.973259 -1.43627,-1.56501 -0.336625,-0.610649 -0.505528,-1.2839 -0.505528,-2.01266 0,-0.348436 0.0401587,-0.690967 0.119295,-1.02287l0.00118114 -0.00472456 -0.00118114 0c0.0791364,-0.329538 0.19725,-0.63191 0.347255,-0.902391 0.121657,-0.230322 0.2693,-0.454739 0.433478,-0.668525 0.161816,-0.207881 0.340168,-0.399225 0.530332,-0.569309l0.0366153 -0.0318908c0.173628,-0.140556 0.355523,-0.271662 0.536237,-0.388595 0.194888,-0.126382 0.387414,-0.233866 0.57049,-0.317727l0.0366153 -0.0153548 0 -0.00118114 0.370878 -0.154729 0.0755929 -0.0283473 0.245677 -0.0980346 0.0862232 -0.0295285 -0.00118114 -0.00236228c0.337806,-0.100397 0.702778,-0.196069 1.08547,-0.281111l0.00354342 -0.00118114 0 -0.00236228c0.349617,-0.0767741 0.70514,-0.142918 1.06539,-0.193707l0.122839 -0.00944912c0.344893,-0.0295285 0.603562,-0.050789 0.770103,-0.059057l0.0330719 -0.00118114c0.210243,-0.00944912 0.381508,-0.00826798 0.512615,0.00354342l0.325995 0.00472456 0.0283473 0.00118114 0 -0.00118114c0.139374,0.00472456 0.271662,0.0153548 0.393319,0.0271662 0.201975,0.0200794 0.38387,0.0980346 0.533875,0.214967 0.595294,0.418123 1.10791,0.797269 1.52839,1.13508 0.463007,0.372059 0.85042,0.716952 1.15634,1.02759 0.350798,0.388595 0.633091,0.837428 0.817349,1.32878 0.16536,0.488992 0.264575,0.968534 0.264575,1.48705 0,0.643721 -0.131106,1.23902 -0.387414,1.78234 -0.263394,0.557498 -0.664982,1.04058 -1.14098,1.43154zm-2.37409 -1.08192c0.42521,-0.121657 0.780733,-0.301191 1.06303,-0.529151 0.256307,-0.210243 0.448833,-0.447652 0.571672,-0.708684 0.121657,-0.257488 0.184258,-0.557498 0.184258,-0.894123 0,-0.264575 -0.0377965,-0.504347 -0.111027,-0.716952l-0.0141737 -0.0377965c-0.0826798,-0.218511 -0.206699,-0.427573 -0.370878,-0.620098 -0.244496,-0.248039 -0.566947,-0.532694 -0.960266,-0.848058 -0.36261,-0.291741 -0.773646,-0.600019 -1.2272,-0.921289l-0.315364 -0.00472456c-0.0566947,0.00236228 -0.112208,-0.00236228 -0.168903,-0.00944912l-0.219692 0.0059057c-0.233866,0.016536 -0.468912,0.0307096 -0.702778,0.0496079 -0.314183,0.0401587 -0.629547,0.10394 -0.939006,0.171265 -0.0129925,-0.0259851 -0.845696,0.219692 -0.91184,0.23859l-0.177171 0.0696872 -0.40395 0.170084c-0.0968534,0.0460644 -0.196069,0.101578 -0.288198,0.160635 -0.116933,0.067325 -0.236228,0.162997 -0.341349,0.246858 -0.0885855,0.0814986 -0.172446,0.172446 -0.24922,0.270481 -0.0791364,0.102759 -0.160635,0.230322 -0.237409,0.375602 -0.0732307,0.131106 -0.135831,0.2693 -0.170084,0.415761 -0.0354342,0 -0.0531513,0.501984 -0.0531513,0.5386 0,0.375602 0.0826798,0.714589 0.245677,1.01106 0.173628,0.316545 0.448833,0.610649 0.817349,0.872862l-0.00118114 0.00118114 0.0212605 0.0153548c0.368516,0.276387 0.820892,0.493716 1.34886,0.641359 0.563404,0.159454 1.20594,0.245677 1.92171,0.255126l0.0200794 0c0.636634,-0.00944912 1.19413,-0.0838609 1.66423,-0.219692l0 0.00118114 0.00472456 -0.00118114zm-1.28272 -15.1564c-0.415761,0 -0.820892,-0.067325 -1.21185,-0.201975l-0.00118114 0.00236228c-0.388595,-0.132288 -0.751205,-0.330719 -1.08547,-0.592932l-0.0531513 -0.0448833c-0.272843,-0.219692 -0.524426,-0.464188 -0.748842,-0.72522 -0.237409,-0.277568 -0.453558,-0.589389 -0.641359,-0.92247l-0.00944912 -0.0177171 -0.00236228 0.00118114c-0.35198,-0.650808 -0.617736,-1.29453 -0.796088,-1.92762 -0.184258,-0.655532 -0.277568,-1.29925 -0.277568,-1.92998l0.00236228 -0.0661438c-0.00118114,-0.483086 0.0626004,-0.947274 0.192526,-1.39256l0.0118114 -0.0354342c0.138193,-0.464188 0.349617,-0.901209 0.626004,-1.30752 0.34253,-0.447652 0.805537,-0.822073 1.31225,-1.06657 0.468912,-0.225598 0.982708,-0.347255 1.53548,-0.361429 0.412218,0.0059057 0.823254,0.0744118 1.21421,0.203156 0.375602,0.12402 0.726401,0.303553 1.04295,0.532694l0.0826798 0.0661438c0.268119,0.216149 0.519701,0.468912 0.740575,0.748842l0.00236228 -0.00118114c0.225598,0.282292 0.427573,0.604743 0.603562,0.962629l0.0153548 0.0318908c0.327176,0.657895 0.576396,1.31461 0.741756,1.96542 0.171265,0.676793 0.25867,1.35359 0.25867,2.02093 0,0.295285 -0.0248039,0.669706 -0.0720495,1.11618l-0.0200794 0.119295c-0.0496079,0.255126 -0.129925,0.510252 -0.232684,0.758292l0.00236228 0.00118114c-0.105121,0.253945 -0.242134,0.506709 -0.402769,0.750024 -0.0496079,0.0744118 -0.107484,0.140556 -0.170084,0.198431 -0.347255,0.34253 -0.73585,0.613011 -1.16815,0.797269 -0.471275,0.201975 -0.980346,0.300009 -1.49178,0.315364l0 0.00236228zm-0.537419 -2.16503c0.15591,0.0531513 0.337806,0.0814986 0.537419,0.0814986l0 0.00236228c0.243315,-0.0118114 0.467731,-0.0649627 0.669706,-0.150005 0.172446,-0.0744118 0.334262,-0.180714 0.480724,-0.315364 0.0637815,-0.105121 0.119295,-0.212605 0.161816,-0.315364l0.00118114 0.00118114 0.00236228 -0.00472456c0.0460644,-0.108665 0.0803175,-0.222054 0.10394,-0.334262 0.034253,-0.327176 0.0519701,-0.615374 0.0519701,-0.858688 0,-0.503165 -0.0649627,-1.01106 -0.192526,-1.5154 -0.131106,-0.520883 -0.333081,-1.04767 -0.596475,-1.57446l-0.00354342 -0.00826798c-0.102759,-0.211424 -0.229141,-0.409855 -0.370878,-0.588208 0.0118114,-0.0118114 -0.376784,-0.390957 -0.412218,-0.419305 -0.153548,-0.102759 -0.303553,-0.193707 -0.480724,-0.251583 -0.16536,-0.0543324 -0.344893,-0.0874043 -0.536237,-0.0956723 -0.220873,0 -0.460644,0.0602381 -0.659076,0.154729 -0.187801,0.0909477 -0.366153,0.230322 -0.530332,0.415761 -0.138193,0.211424 -0.244496,0.432297 -0.314183,0.656714l-0.0141737 0.0519701c-0.0720495,0.245677 -0.108665,0.50789 -0.109846,0.780733l0.00472456 0.0921289c0,0.446471 0.0661438,0.903572 0.19725,1.36776 0.137012,0.48663 0.346074,0.990976 0.623642,1.50477l-0.00236228 0.00118114c0.114571,0.200794 0.251583,0.394501 0.402769,0.571672 0.139374,0.162997 0.295285,0.315364 0.463007,0.450014 0.161816,0.119295 0.322451,0.229141 0.514977,0.294104l-0.00118114 0.00236228 0.00826798 0.00236228zm4.00879 -0.700416l-0.00826798 0.042521m1.27681 9.04162c-0.823254,-0.715771 -1.82132,-1.50595 -2.28314,-2.10243 -0.191345,-0.261032 -0.356704,-0.493716 -0.465369,-0.803175 -0.106303,-0.303553 -0.160635,-0.626004 -0.160635,-0.964991 0,-0.327176 0.0496079,-0.651989 0.150005,-0.967353 0.0968534,-0.304734 0.237409,-0.587026 0.419305,-0.842153 0.111027,-0.171265 0.240952,-0.35198 0.382689,-0.530332l-0.00118114 -0.00118114c0.146461,-0.188982 0.297647,-0.360248 0.44529,-0.513796l0.0566947 -0.0566947 0.659076 -0.587026 0.0283473 -0.0236228 0.553954 -0.516158c0.139374,-0.148824 0.292923,-0.323632 0.45592,-0.519701l0.00236228 -0.00236228c0.150005,-0.184258 0.304734,-0.382689 0.452376,-0.589389l0.0259851 -0.0354342c0.243315,-0.360248 0.43584,-0.781914 0.568128,-1.26382 0.147642,-0.536237 0.229141,-1.15043 0.240952,-1.83313l0.00118114 -0.25867c0,-0.401587 -0.00472456,-0.759473 -0.119295,-1.14807 -0.0980346,-0.274024 -0.204337,-0.535056 -0.309459,-0.754748l-0.00118114 0.00118114c-0.0874043,-0.181895 -0.174809,-0.328357 -0.250402,-0.409855l-0.239771 -0.231503c-0.361429,-0.348436 -0.887036,-0.856326 -1.00043,-0.926013 -0.488992,-0.297647 -0.643721,-0.939006 -0.346074,-1.428 0.194888,-0.320089 0.537419,-0.49726 0.887036,-0.49726l0 -0.00354342 2.16149 0 0.5386 -0.70514 -6.56123 0c-0.551592,0 -1.11145,0.0318908 -1.67722,0.09331 -0.589389,0.0626004 -1.18705,0.157092 -1.78706,0.276387l0.00118114 0.00354342c-0.581121,0.135831 -1.15634,0.350798 -1.71856,0.641359 -0.561041,0.289379 -1.11618,0.657895 -1.65714,1.09964 -0.791364,0.768922 -1.38548,1.57682 -1.77407,2.41661 -0.381508,0.823254 -0.574034,1.69494 -0.574034,2.60796 0,0.745299 0.133469,1.44217 0.396863,2.08944l0.0248039 0.067325c0.266938,0.621279 0.6638,1.21067 1.18586,1.75754l0.0366153 0.0401587c0.498441,0.584664 1.11027,1.02877 1.83313,1.32642 0.753567,0.311821 1.64178,0.474818 2.6552,0.487811 0,0 0.557498,-0.0188982 0.613011,-0.0212605 0.223235,-0.00944912 0.442927,-0.0330719 0.664982,-0.0566947 0.57049,-0.0626004 1.08429,0.349617 1.14689,0.920108 0.0177171,0.160635 -0.00236228,0.316545 -0.0531513,0.459463l-0.00944912 0.0271662 -0.255126 0.715771 -0.0236228 0.0614193c-0.0224417,0.0543324 -0.042521,0.118114 -0.0531513,0.188982l-0.0059057 0.034253c-0.0118114,0.0803175 -0.0188982,0.190163 -0.0188982,0.323632 0,0.23859 0.0236228,0.452376 0.0696872,0.629547 0.042521,0.16536 0.108665,0.320089 0.194888,0.45592 0.135831,0.223235 0.253945,0.460644 0.393319,0.682699 0.113389,0.179533 0.246858,0.368516 0.392138,0.561041 0.346074,0.458282 0.255126,1.11145 -0.203156,1.45753 -0.196069,0.148824 -0.428754,0.21733 -0.656714,0.210243 -0.46655,0.0153548 -0.995701,0.0519701 -1.58155,0.109846 -0.582302,0.0566947 -1.26973,0.14528 -2.0481,0.259851l-2.05873 0.546868c-0.672068,0.243315 -1.34059,0.555136 -1.99849,0.931919l-0.0236228 0.0129925c-0.527969,0.316545 -0.975621,0.661438 -1.34177,1.02759l-0.0496079 0.0448833c-0.324813,0.335444 -0.577577,0.689786 -0.755929,1.05594l-0.0059057 0.0118114 0.00236228 0.00118114c-0.219692,0.440565 -0.381508,0.848058 -0.483086,1.21775 -0.0956723,0.348436 -0.144099,0.682699 -0.144099,0.998063 0,0.655532 0.147642,1.25909 0.439384,1.80714 0.307096,0.575215 0.781914,1.115 1.42327,1.61698l0.0318908 0.0259851 0 -0.00118114c0.630729,0.532694 1.44571,0.943731 2.43787,1.22602 1.04767,0.298828 2.27842,0.45592 3.6887,0.470094 1.70202,-0.0271662 3.20207,-0.245677 4.49305,-0.647264 1.24965,-0.389776 2.30086,-0.957904 3.14892,-1.6973 0.822073,-0.716952 1.43508,-1.48351 1.83903,-2.29259 0.388595,-0.781914 0.584664,-1.61934 0.584664,-2.50756 0.0106303,-0.565766 -0.0814986,-1.18232 -0.232684,-1.72683 -0.13465,-0.480724 -0.329538,-0.900028 -0.57994,-1.25555 -0.314183,-0.412218 -0.656714,-0.806718 -1.01696,-1.1776 -0.372059,-0.385051 -0.774828,-0.753567 -1.20122,-1.102zm-0.102759 -2.77095l1.41737 1.15988 -0.00118114 0.00118114c0.487811,0.399225 0.948455,0.823254 1.37603,1.26382 0.427573,0.439384 0.825617,0.900028 1.18823,1.37485 0.426391,0.569309 0.732307,1.26264 0.923651,1.94416 0.184258,0.656714 0.288198,1.39138 0.308277,2.19574 0.059057,1.18705 -0.274024,2.47213 -0.799631,3.52925 -0.523245,1.04767 -1.30162,2.02565 -2.33511,2.92804 -1.07247,0.935463 -2.37409,1.64415 -3.89776,2.12015 -1.47406,0.459463 -3.1749,0.707503 -5.08953,0.737031 -1.428,0 -2.90324,-0.151186 -4.28045,-0.543324 -1.27327,-0.36261 -2.34574,-0.913021 -3.21034,-1.64178 -0.853964,-0.674431 -1.50359,-1.42682 -1.94416,-2.25361 -0.460644,-0.863413 -0.692148,-1.79297 -0.692148,-2.78276 0,-0.484267 0.0755929,-1.00161 0.224417,-1.54375 0.142918,-0.523245 0.35198,-1.0583 0.622461,-1.60044l0.00236228 0.00118114c0.276387,-0.569309 0.656714,-1.10318 1.13626,-1.59454l0.0602381 -0.0661438c0.474818,-0.474818 1.05712,-0.92247 1.74218,-1.33469l0.0626004 -0.0389776c0.747661,-0.427573 1.52367,-0.789001 2.32448,-1.07838 0.780733,-0.283473 1.58036,-0.49726 2.38945,-0.638997l0.0779552 -0.0141737c0.74648,-0.108665 1.46107,-0.199613 2.14495,-0.266938l0.00944912 -0.00118114c-0.154729,-0.274024 -0.274024,-0.572853 -0.355523,-0.889398 -0.0944912,-0.364972 -0.142918,-0.751205 -0.142918,-1.14925 0,-0.193707 0.0129925,-0.385051 0.0401587,-0.576396 -1.27681,-0.0177171 -2.41307,-0.232684 -3.40641,-0.643721 -1.02995,-0.42521 -1.90282,-1.05594 -2.61386,-1.8851 -0.685061,-0.724039 -1.21421,-1.51776 -1.57328,-2.36818l-0.034253 -0.0767741c-0.364972,-0.896485 -0.550411,-1.85557 -0.550411,-2.87135 0,-1.21185 0.25867,-2.37409 0.770103,-3.47964 0.501984,-1.08192 1.24965,-2.10479 2.23944,-3.06151l0 0.00118114 0.0614193 -0.0543324c0.67325,-0.553954 1.36422,-1.0146 2.06581,-1.37721 0.719314,-0.372059 1.45516,-0.647264 2.1981,-0.820892l0.00118114 0.00354342 0.0318908 -0.00708684c0.702778,-0.140556 1.37485,-0.24922 2.00557,-0.316545 0.664982,-0.0720495 1.29925,-0.109846 1.89691,-0.109846l8.66602 0 0 0.00354342c0.220873,0 0.442927,0.0696872 0.630729,0.212605 0.45592,0.347255 0.542143,1.00043 0.194888,1.45635l-2.08944 2.73198c-0.18662,0.281111 -0.505528,0.467731 -0.868138,0.467731l-0.132288 0c0.101578,0.15591 0.194888,0.324813 0.27993,0.500803l-0.00236228 0.00118114 0.00236228 0.00354342c0.144099,0.296466 0.271662,0.620098 0.390957,0.946093 0.220873,0.609468 0.245677,1.20122 0.244496,1.84258l-0.00118114 0.298828c0,0.785458 -0.105121,1.60871 -0.314183,2.36582 -0.196069,0.712227 -0.484267,1.34532 -0.863413,1.89691l-0.0401587 0.0614193c-0.167722,0.235047 -0.349617,0.467731 -0.531513,0.690967l-0.0129925 0.016536c-0.159454,0.192526 -0.34253,0.396863 -0.542143,0.609468l-0.0354342 0.0377965 -0.0448833 0.0448833 -0.572853 0.533875 -0.0626004 0.0602381 -0.644902 0.575215c-0.0909477,0.0968534 -0.179533,0.19725 -0.256307,0.296466l-0.00118114 -0.00118114 -0.00708684 0.00944912c-0.0862232,0.109846 -0.180714,0.244496 -0.27993,0.398044l-0.0377965 0.0543324c-0.0649627,0.0885855 -0.113389,0.180714 -0.141737,0.270481 -0.0283473,0.0921289 -0.0437022,0.207881 -0.0437022,0.341349 0,0.111027 0.0141737,0.203156 0.0377965,0.272843 0.0153548,0.0448833 0.0389776,0.0874043 0.0661438,0.12402l0.0661438 0.0767741c0.114571,0.14528 0.211424,0.262213 0.287017,0.347255 0.0602381,0.0685061 0.147642,0.159454 0.265756,0.278749z"/>
  <path d="M36.1547 9.95464c0,-0.575215 0.46655,-1.04177 1.04177,-1.04177 0.575215,0 1.04177,0.46655 1.04177,1.04177l0 6.7006c0,0.575215 -0.46655,1.04177 -1.04177,1.04177 -0.575215,0 -1.04177,-0.46655 -1.04177,-1.04177l0 -6.7006z"/>
  <path d="M33.8456 14.3461c-0.575215,0 -1.04177,-0.46655 -1.04177,-1.04177 0,-0.575215 0.46655,-1.04177 1.04177,-1.04177l6.69942 0c0.575215,0 1.04177,0.46655 1.04177,1.04177 0,0.575215 -0.46655,1.04177 -1.04177,1.04177l-6.69942 0z"/>
</svg>