<svg xmlns="http://www.w3.org/2000/svg" xml:space="preserve" width="50px" height="176389px" style="shape-rendering:geometricPrecision; text-rendering:geometricPrecision; image-rendering:optimizeQuality; fill-rule:evenodd; clip-rule:evenodd" viewBox="0 0 41.996 41.996" xmlns:xlink="http://www.w3.org/1999/xlink">
<path d="M19.5437 26.5308c-0.135913,0.535714 -0.269841,1.07242 -0.409722,1.60714l-0.119048 0.468254c-0.198413,0.78373 -0.397817,1.57242 -0.705357,2.32143 -0.298611,0.725198 -0.638889,1.4375 -1.02976,2.11706 -0.390873,0.677579 -0.837302,1.32738 -1.35317,1.91567 -0.391865,0.448413 -0.848214,1.02381 -1.42659,0.572421 -0.419643,-0.132937 -0.505952,-0.435516 -0.5625,-0.842262l-0.00892857 -0.0555556c-0.142857,-1.04365 -0.077381,-2.13988 -0.0228175,-3.18849l0.0287698 -0.570437c0.0605159,-1.2748 0.316468,-2.4375 0.612103,-3.67063l0.0585317 -0.248016c0.260913,-1.09821 0.520833,-2.19643 0.77877,-3.29563 0.269841,-1.15179 0.542659,-2.30159 0.81746,-3.45139 0.0138889,-0.0585317 0.0297619,-0.116071 0.047619,-0.174603 0.00892857,-0.0287698 0.0168651,-0.0535714 0.0248016,-0.0744048 -0.104167,-0.27877 -0.198413,-0.5625 -0.27381,-0.85119 -0.0902778,-0.34127 -0.152778,-0.684524 -0.189484,-1.03571 -0.0416667,-0.396825 -0.0505952,-0.797619 -0.0218254,-1.19544 0.0287698,-0.392857 0.093254,-0.781746 0.193452,-1.16171 0.180556,-0.678571 0.489087,-1.3373 0.935516,-1.88095 0.420635,-0.510913 0.951389,-0.905754 1.58135,-1.12103 0.399802,-0.137897 0.831349,-0.188492 1.25298,-0.156746 0.412698,0.030754 0.84623,0.144841 1.20437,0.355159 0.320437,0.188492 0.594246,0.435516 0.808532,0.740079 0.218254,0.30754 0.364087,0.656746 0.451389,1.02282 0.10119,0.409722 0.114087,0.842262 0.0843254,1.26389 -0.0267857,0.368056 -0.0902778,0.735119 -0.169643,1.09623 -0.171627,0.77381 -0.397817,1.51786 -0.634921,2.27183 -0.143849,0.459325 -0.285714,0.919643 -0.414683,1.38393l-0.0248016 0.0882937c-0.136905,0.498016 -0.300595,1.06151 -0.178571,1.57738 0.0505952,0.212302 0.132937,0.415675 0.257937,0.595238 0.118056,0.168651 0.266865,0.309524 0.434524,0.430556 0.18254,0.12996 0.377976,0.230159 0.593254,0.292659 0.265873,0.0763889 0.544643,0.0972222 0.820437,0.0863095 0.515873,-0.0168651 0.988095,-0.18254 1.41667,-0.467262 0.405754,-0.267857 0.750992,-0.624008 1.0496,-1.00595 0.486111,-0.62004 0.849206,-1.33135 1.11706,-2.07143 0.319444,-0.876984 0.509921,-1.80853 0.613095,-2.73611 0.0376984,-0.34127 0.0684524,-0.683532 0.0823413,-1.02579 0.0168651,-0.355159 0.0168651,-0.71131 -0.00793651,-1.06746 -0.0406746,-0.576389 -0.147817,-1.14881 -0.347222,-1.69444 -0.179563,-0.493056 -0.436508,-0.951389 -0.768849,-1.3631l-0.0138889 -0.0178571c-0.306548,-0.377976 -0.671627,-0.702381 -1.0744,-0.973214 -0.43254,-0.28869 -0.904762,-0.512897 -1.39881,-0.672619 -0.595238,-0.190476 -1.24702,-0.289683 -1.87004,-0.328373 -0.661706,-0.0406746 -1.34325,-0.0128968 -1.99603,0.0952381 -1.06151,0.179563 -2.07044,0.558532 -2.95139,1.18353 -0.868056,0.615079 -1.55258,1.42361 -2.05556,2.35813 -0.265873,0.496032 -0.477183,1.01488 -0.62004,1.55952 -0.160714,0.612103 -0.233135,1.23909 -0.233135,1.87202 0,0.459325 0.0496032,0.922619 0.176587,1.36508 0.104167,0.361111 0.256944,0.703373 0.467262,1.01687 0.152778,0.228175 -0.0347222,-0.0267857 0.171627,0.210317 0.133929,0.15377 0.260913,0.304563 0.367063,0.489087l0.0128968 0.0248016c0.266865,0.498016 0.128968,1.00794 -0.0248016,1.50694l-0.00595238 0.0198413c-0.0654762,0.210317 -0.00793651,0.00992063 -0.0555556,0.193452 -0.0605159,0.227183 -0.00198413,-0.0178571 -0.0515873,0.230159 -0.149802,0.727183 -0.365079,1.34821 -1.24504,1.36508 -0.224206,0.000992063 -0.46131,-0.0813492 -0.664683,-0.177579l-0.0218254 -0.0119048c-0.205357,-0.0982143 -0.431548,-0.228175 -0.613095,-0.366071 -0.52381,-0.388889 -1.00694,-0.801587 -1.40675,-1.32242 -0.405754,-0.531746 -0.691468,-1.13194 -0.944444,-1.74802 -0.279762,-0.681548 -0.430556,-1.52183 -0.505952,-2.25298 -0.0734127,-0.71627 -0.100198,-1.57143 0.0416667,-2.27976 0.128968,-0.644841 0.313492,-1.29365 0.521825,-1.91667 0.179563,-0.532738 0.393849,-1.10317 0.664683,-1.59524 0.470238,-0.856151 1.05754,-1.63988 1.74206,-2.33532 0.696429,-0.706349 1.48611,-1.31151 2.34325,-1.80853 0.670635,-0.392857 1.37698,-0.713294 2.11111,-0.968254 0.800595,-0.275794 1.62599,-0.467262 2.46329,-0.58631 0.301587,-0.0436508 0.604167,-0.0734127 0.907738,-0.0962302 0.311508,-0.0238095 0.624008,-0.0396825 0.935516,-0.0535714 0.871032,-0.0406746 1.74603,0.0208333 2.60317,0.178571 0.853175,0.156746 1.6994,0.409722 2.49306,0.760913 0.680556,0.299603 1.33036,0.662698 1.93452,1.09524 0.577381,0.41369 1.10615,0.883929 1.58929,1.40377 0.499008,0.537698 0.933532,1.12401 1.29464,1.7619 0.37996,0.668651 0.671627,1.37897 0.888889,2.11607 0.125992,0.422619 0.212302,0.856151 0.267857,1.29365 0.0625,0.475198 0.0902778,0.955357 0.0902778,1.43353 0,0.460317 -0.0228175,0.919643 -0.0664683,1.37798 -0.0416667,0.428571 -0.102183,0.854167 -0.174603,1.27877 -0.260913,1.54365 -0.772817,3.05754 -1.58433,4.40079 -0.75,1.24405 -1.74306,2.31448 -2.96726,3.10119 -0.328373,0.21131 -0.673611,0.39881 -1.02976,0.560516 -0.353175,0.159722 -0.717262,0.294643 -1.08929,0.400794 -0.417659,0.121032 -0.84127,0.217262 -1.27183,0.276786 -0.478175,0.0664683 -0.960317,0.0892857 -1.44544,0.0555556l-0.00694444 -0.00198413c-0.452381,-0.0297619 -0.895833,-0.106151 -1.32937,-0.233135 -0.392857,-0.116071 -0.771825,-0.27381 -1.12897,-0.473214 -0.295635,-0.16369 -0.578373,-0.349206 -0.83631,-0.56746zm-5.88492 -4.01389c0.0327381,-0.0982143 0.0634921,-0.251984 0.0744048,-0.308532 0.0208333,-0.100198 0.0416667,-0.199405 0.0674603,-0.298611 0.0218254,-0.0793651 0.0446429,-0.156746 0.0684524,-0.231151l0.00694444 -0.0238095c0.0297619,-0.0992063 0.144841,-0.452381 0.127976,-0.527778l-0.00496032 -0.00793651c-0.0575397,-0.0982143 -0.142857,-0.19246 -0.217262,-0.276786 -0.0962302,-0.111111 -0.191468,-0.220238 -0.271825,-0.342262 -0.284722,-0.422619 -0.494048,-0.886905 -0.634921,-1.37698 -0.159722,-0.55754 -0.227183,-1.13591 -0.227183,-1.71528 0,-0.743056 0.0863095,-1.47917 0.276786,-2.19742 0.168651,-0.641865 0.416667,-1.25397 0.731151,-1.83829 0.59623,-1.10913 1.4127,-2.06548 2.44147,-2.79365 1.04067,-0.736111 2.22321,-1.19048 3.47718,-1.40079 0.748016,-0.126984 1.52579,-0.15873 2.28373,-0.113095 0.729167,0.0456349 1.4871,0.164683 2.18452,0.388889 0.606151,0.196429 1.1875,0.47123 1.71726,0.827381 0.509921,0.342262 0.972222,0.755952 1.36012,1.23313l0.014881 0.0188492c0.418651,0.516865 0.743056,1.09821 0.97123,1.72321 0.242063,0.656746 0.374008,1.34921 0.421627,2.04861 0.0277778,0.400794 0.0277778,0.804563 0.00992063,1.20734 -0.0168651,0.371032 -0.047619,0.741071 -0.0892857,1.11012 -0.114087,1.02976 -0.327381,2.05655 -0.680556,3.03274 -0.315476,0.866071 -0.743056,1.69246 -1.3125,2.41964 -0.383929,0.491071 -0.829365,0.941468 -1.3502,1.28671 -0.62996,0.414683 -1.3244,0.650794 -2.08036,0.676587 -0.407738,0.0138889 -0.81746,-0.0228175 -1.21131,-0.135913 -0.356151,-0.104167 -0.685516,-0.263889 -0.987103,-0.481151 -0.286706,-0.204365 -0.536706,-0.448413 -0.737103,-0.738095 -0.217262,-0.313492 -0.366071,-0.65873 -0.453373,-1.02877 -0.185516,-0.779762 -0.015873,-1.4623 0.191468,-2.21131l0.0238095 -0.0892857c0.132937,-0.479167 0.279762,-0.951389 0.427579,-1.4246 0.225198,-0.718254 0.443452,-1.43155 0.607143,-2.16667 0.0674603,-0.299603 0.119048,-0.607143 0.141865,-0.912698 0.0208333,-0.284722 0.0188492,-0.593254 -0.0505952,-0.872024 -0.0505952,-0.208333 -0.130952,-0.411706 -0.255952,-0.588294 -0.109127,-0.155754 -0.247024,-0.279762 -0.409722,-0.375992 -0.190476,-0.110119 -0.4375,-0.164683 -0.65377,-0.181548 -0.25,-0.0188492 -0.507937,0.00992063 -0.746032,0.0922619 -0.402778,0.137897 -0.740079,0.395833 -1.00992,0.722222 -0.329365,0.401786 -0.552579,0.896825 -0.685516,1.39683 -0.0803571,0.302579 -0.131944,0.614087 -0.154762,0.925595 -0.0228175,0.325397 -0.014881,0.650794 0.0188492,0.974206 0.0287698,0.286706 0.0803571,0.56746 0.15377,0.845238 0.0744048,0.28373 0.169643,0.558532 0.271825,0.829365l0.014881 0.0367063 0.0297619 0.107143c0.014881,0.0813492 0.0178571,0.171627 0.00892857,0.25496 -0.0128968,0.130952 -0.0496032,0.256944 -0.0863095,0.383929l-0.0327381 0.109127c-0.275794,1.14881 -0.543651,2.29464 -0.814484,3.44345 -0.257937,1.10119 -0.515873,2.2004 -0.780754,3.2996l-0.0605159 0.249008c-0.274802,1.15179 -0.519841,2.24702 -0.575397,3.4375l-0.0287698 0.573413c-0.0416667,0.780754 -0.094246,1.61111 -0.0416667,2.40675 0.388889,-0.470238 0.731151,-0.981151 1.03571,-1.50992 0.364087,-0.630952 0.677579,-1.29266 0.955357,-1.96627 0.282738,-0.6875 0.465278,-1.4246 0.645833,-2.13988l0.00396825 -0.0208333 0.119048 -0.46131c0.143849,-0.550595 0.281746,-1.10417 0.420635,-1.65675l0.289683 -1.14286c0.0416667,-0.166667 0.14881,-0.309524 0.298611,-0.396825 0.303571,-0.175595 0.693452,-0.0704365 0.872024,0.234127 0.136905,0.238095 0.309524,0.448413 0.513889,0.631944 0.213294,0.193452 0.454365,0.354167 0.705357,0.492063 0.275794,0.154762 0.56746,0.276786 0.87004,0.365079 0.344246,0.10119 0.695437,0.161706 1.04365,0.185516l0.0218254 0c0.392857,0.0277778 0.790675,0.00892857 1.18056,-0.0456349 0.371032,-0.0515873 0.736111,-0.137897 1.09722,-0.240079 0.3125,-0.0892857 0.618056,-0.202381 0.91369,-0.335317 0.299603,-0.136905 0.589286,-0.294643 0.867063,-0.473214 1.05754,-0.680556 1.91369,-1.61111 2.56151,-2.68651 0.728175,-1.20536 1.18552,-2.56746 1.42063,-3.95238 0.0674603,-0.393849 0.124008,-0.789683 0.162698,-1.18849 0.0396825,-0.418651 0.0595238,-0.837302 0.0595238,-1.25694 0,-0.423611 -0.0228175,-0.849206 -0.077381,-1.26984 -0.047619,-0.37004 -0.122024,-0.738095 -0.228175,-1.09722 -0.189484,-0.642857 -0.44246,-1.2629 -0.77381,-1.84722 -0.3125,-0.551587 -0.689484,-1.05853 -1.12004,-1.52282 -0.424603,-0.456349 -0.889881,-0.87004 -1.39782,-1.23313 -0.53373,-0.381944 -1.10615,-0.701389 -1.70536,-0.96627 -0.704365,-0.310516 -1.45337,-0.535714 -2.20933,-0.673611 -0.762897,-0.140873 -1.53968,-0.194444 -2.31548,-0.15873 -0.299603,0.0138889 -0.599206,0.0287698 -0.897817,0.0505952 -0.275794,0.0208333 -0.550595,0.047619 -0.823413,0.0873016 -0.756944,0.108135 -1.50496,0.27877 -2.22718,0.527778 -0.656746,0.22619 -1.28571,0.516865 -1.88591,0.866071 -0.758929,0.440476 -1.45833,0.977183 -2.0744,1.6002 -0.603175,0.612103 -1.11806,1.30258 -1.53175,2.05556 -0.235119,0.424603 -0.419643,0.926587 -0.574405,1.38591 -0.191468,0.572421 -0.360119,1.17063 -0.479167,1.7629 -0.116071,0.579365 -0.0853175,1.3125 -0.0248016,1.89881 0.0605159,0.606151 0.18254,1.33234 0.415675,1.89683 0.208333,0.506944 0.444444,1.02282 0.779762,1.45933 0.321429,0.420635 0.735119,0.760913 1.15575,1.07837 0.118056,0.0882937 0.265873,0.171627 0.392857,0.232143l0.0228175 0.0109127c0.0128968,0.00496032 0.0267857,0.0119048 0.0406746,0.0188492z"/>
</svg>