<svg xmlns="http://www.w3.org/2000/svg">
<defs>
<font id="UTMCafeta" horiz-adv-x="729" >
  <font-face 
    font-family="UTMCafeta"
    font-weight="400"
    font-stretch="normal"
    units-per-em="2048"
    panose-1="2 4 6 3 5 5 6 2 2 4"
    ascent="1638"
    descent="-410"
    x-height="1067"
    cap-height="1446"
    bbox="-154 -483 4942 2130"
    underline-thickness="109"
    underline-position="-359"
    unicode-range="U+0020-2026"
  />
<missing-glyph horiz-adv-x="5040" 
d="M3351 2045h10q37 -10 37 -52q0 -12 -32 -57h-28q0 24 28 54l2 10q-5 13 -10 15h-9q-8 0 -10 -19h-30q6 49 42 49zM2019 2016l29 -31q0 -16 -40 -30h-19l-59 12l-11 -12l-28 25q11 29 43 29h11l42 -11h2q10 0 30 18zM468 1980h142v-60h-94v-75h89v-59h-89v-129l-5 -5h-49
v323zM1155 1980h43l6 -5v-78h30v-52h-30v-188l-6 -5h-49v193h-25v52h25v78zM1621 1980h42l4 -5v-94h3q23 24 54 24h2q58 0 83 -71l2 -39v-143h-52v115q0 80 -42 80h-7q-43 0 -43 -86v-109h-51v323zM2200 1980h49l5 -5v-222q10 -51 45 -51q44 7 44 59v214l5 5h49v-216
q0 -85 -66 -112q-15 -8 -35 -8q-47 0 -82 55q-14 24 -14 57v224zM2435 1980h159v-60h-56v-268h-53v268h-55v55zM2621 1980h71q7 -4 83 -251h2l80 251h73v-328h-54v242h-2l-74 -242h-44q-4 0 -58 182l-19 60h-3v-242h-55v328zM3760 1980h52v-328h-45l-5 5v11l3 2l-3 14
q-29 -40 -78 -40q-67 0 -100 91l-5 39v3q0 94 92 125l23 3q35 0 63 -32h3v107zM2057 1928h36l4 -6v-49h-45v-221h-48v23q-23 -31 -59 -31q-89 14 -89 97v156h51v-104q0 -79 26 -86l18 -5h6q26 0 39 36l3 26v133h53v25zM3476 1928v-55h-31v-221h-47v25h-2q-15 -33 -57 -33
q-68 0 -86 78l-3 29v146h52v-120q0 -50 19 -68l21 -7h9q42 0 42 69v126h27q4 0 4 28l3 3h49zM758 1905q68 0 103 -77q9 -18 12 -54q0 -88 -90 -127l-32 -3q-63 0 -101 73q-12 22 -12 52v10q0 94 101 126h19zM1011 1905h3q74 0 83 -101v-152h-51v119q0 76 -42 76h-5
q-44 0 -44 -76v-119h-52v245h46v-21q30 29 62 29zM1466 1905h7q72 0 105 -89h-60q-16 31 -42 31h-17q-53 -14 -53 -61l-3 -15q12 -69 61 -69h9q22 0 47 27h40l2 3h3l2 -3l2 3l3 -3l2 3l2 -7q-33 -81 -110 -81q-76 0 -110 94l-4 36v3q0 85 77 120q15 8 37 8zM3141 1905h2

<glyph glyph-name=".notdef" horiz-adv-x="5040" 
d="M3351 2045h10q37 -10 37 -52q0 -12 -32 -57h-28q0 24 28 54l2 10q-5 13 -10 15h-9q-8 0 -10 -19h-30q6 49 42 49zM2019 2016l29 -31q0 -16 -40 -30h-19l-59 12l-11 -12l-28 25q11 29 43 29h11l42 -11h2q10 0 30 18zM468 1980h142v-60h-94v-75h89v-59h-89v-129l-5 -5h-49
v323zM1155 1980h43l6 -5v-78h30v-52h-30v-188l-6 -5h-49v193h-25v52h25v78zM1621 1980h42l4 -5v-94h3q23 24 54 24h2q58 0 83 -71l2 -39v-143h-52v115q0 80 -42 80h-7q-43 0 -43 -86v-109h-51v323zM2200 1980h49l5 -5v-222q10 -51 45 -51q44 7 44 59v214l5 5h49v-216
q0 -85 -66 -112q-15 -8 -35 -8q-47 0 -82 55q-14 24 -14 57v224zM2435 1980h159v-60h-56v-268h-53v268h-55v55zM2621 1980h71q7 -4 83 -251h2l80 251h73v-328h-54v242h-2l-74 -242h-44q-4 0 -58 182l-19 60h-3v-242h-55v328zM3760 1980h52v-328h-45l-5 5v11l3 2l-3 14
q-29 -40 -78 -40q-67 0 -100 91l-5 39v3q0 94 92 125l23 3q35 0 63 -32h3v107zM2057 1928h36l4 -6v-49h-45v-221h-48v23q-23 -31 -59 -31q-89 14 -89 97v156h51v-104q0 -79 26 -86l18 -5h6q26 0 39 36l3 26v133h53v25zM3476 1928v-55h-31v-221h-47v25h-2q-15 -33 -57 -33
q-68 0 -86 78l-3 29v146h52v-120q0 -50 19 -68l21 -7h9q42 0 42 69v126h27q4 0 4 28l3 3h49zM758 1905q68 0 103 -77q9 -18 12 -54q0 -88 -90 -127l-32 -3q-63 0 -101 73q-12 22 -12 52v10q0 94 101 126h19zM1011 1905h3q74 0 83 -101v-152h-51v119q0 76 -42 76h-5
q-44 0 -44 -76v-119h-52v245h46v-21q30 29 62 29zM1466 1905h7q72 0 105 -89h-60q-16 31 -42 31h-17q-53 -14 -53 -61l-3 -15q12 -69 61 -69h9q22 0 47 27h40l2 3h3l2 -3l2 3l3 -3l2 3l2 -7q-33 -81 -110 -81q-76 0 -110 94l-4 36v3q0 85 77 120q15 8 37 8zM3141 1905h2
q49 0 70 -60v-14h-52q0 16 -16 16h-4q-14 0 -19 -13v-13q0 -9 68 -35q30 -19 30 -59q0 -58 -61 -80l-23 -3q-76 12 -76 83h54q0 -20 27 -25h4q19 0 24 23q0 22 -68 44q-34 27 -34 59q0 66 74 77zM4203 1905q55 0 77 -63q7 -18 7 -65v-125h-52v112q0 83 -40 83h-11
q-33 0 -40 -54v-141h-52v5h-2l2 2v238h47v-21q25 29 64 29zM4432 1905h5q40 0 69 -40v18l-3 3l3 11h47v-208q0 -97 -85 -132l-33 -4h-7q-70 0 -104 80h59q24 -22 45 -23h13q22 0 43 22q15 13 22 52h-3q-32 -40 -73 -40q-57 0 -96 70q-10 18 -14 63q0 88 87 125zM3851 1897
h53v-136q6 -59 40 -59h7q46 0 46 93v102h51v-245h-47l-3 10h3l-3 3v5l3 2v3h-4q0 -23 -57 -31h-3q-59 0 -84 75l-2 85v93zM690 1771q10 -69 63 -69h7q59 14 59 65v15q-13 65 -59 65h-5q-58 0 -65 -76zM3630 1774q13 -72 61 -72h5q58 0 66 75q0 49 -51 70h-22q-37 0 -56 -57z
M4374 1774q8 -72 65 -72h5q59 12 59 72q0 61 -59 73h-14q-56 -16 -56 -62v-11zM3928 1620h52v-57h-52v57zM1054 1402q43 -11 43 -49v-4q0 -17 -32 -60h-28q0 25 31 57v7q0 12 -7 15h-12q-10 -4 -10 -19h-28v6q0 32 33 44zM3349 1339q92 0 138 -99h-60q-37 42 -80 42
q-55 0 -87 -68q-10 -22 -10 -47q0 -78 81 -110l18 -1q36 0 75 39h61q-44 -97 -138 -97q-93 0 -141 112q-10 31 -10 62q0 97 90 152q29 15 63 15zM3664 1339q57 0 103 -47q46 -51 46 -115v-20q0 -89 -91 -146q-33 -13 -63 -13q-89 0 -138 101q-13 33 -13 60v18q0 98 98 151
q29 11 58 11zM2261 1337h2l47 -11h3q11 0 26 11l18 -36q-18 -19 -35 -19h-3l-54 10l-20 -7l-20 36q18 16 36 16zM716 1334h19q118 0 129 -26q25 -26 25 -62q-10 -57 -30 -57v-6q47 -23 47 -66v-18q0 -63 -69 -88l-54 -5h-67v328zM2550 1334h53v-217q6 -61 45 -61q29 0 44 39
l3 30v203l4 6h45l5 -6v-171q0 -118 -40 -133q-24 -26 -64 -26q-55 0 -91 76l-4 54v206zM2805 1334h59q4 0 122 -237h4v237h50l4 -6v-322h-58q-29 48 -125 238h-3v-238h-53v328zM3101 1334h54v-328h-54v328zM3859 1334h8q155 0 174 -40q23 -11 47 -75l4 -36v-11l3 -2
q0 -94 -82 -149q-35 -15 -99 -15h-55v328zM4141 1334h153v-60h-103v-75h101v-57h-101v-74l4 -5h99v-57h-157v322zM3563 1175v-10q0 -76 79 -108l19 -1q68 0 96 86l3 20v15q0 61 -60 94q-12 8 -39 11q-66 0 -96 -83zM770 1274v-67h9q54 0 54 28l3 14q-11 25 -29 25h-37z
M3912 1274v-206l2 -3v-2q104 0 122 76l2 15v29q0 34 -32 68q-25 23 -78 23h-16zM1041 1259h5q38 0 71 -40v32h49v-245h-49v32q-36 -40 -80 -40q-75 0 -101 97l-5 36q0 89 85 125zM1314 1259h3q74 0 83 -102v-151h-51v128q0 67 -42 67h-10q-34 0 -39 -62v-133h-52v245h47v-21
q28 29 61 29zM1543 1259h5q45 0 71 -40v32h47v-219q0 -95 -104 -126h-16q-74 0 -108 82h59q26 -25 44 -25h14q52 0 64 77q-33 -42 -76 -42q-60 0 -101 81l-7 44v16q0 79 85 117zM1912 1259h2q43 0 61 -37h2q32 37 69 37h4q57 0 79 -55q8 -25 8 -45v-153h-52v138q0 44 -23 55
l-12 2h-15q-32 0 -36 -65v-130h-52v136q0 59 -43 59h-8q-32 0 -36 -57v-138h-54v245h50v-21h2q6 24 54 29zM2282 1259q47 0 75 -42v34h47v-245h-47v32q-36 -40 -78 -40q-74 0 -102 92l-6 41q0 90 85 125zM985 1117q0 -48 61 -61h4q45 0 62 46l3 15v22q-12 62 -57 62h-14
q-41 0 -59 -57v-27zM1487 1128q0 -48 43 -68l18 -4h5q47 0 63 57v23q-11 65 -58 65h-12q-50 0 -59 -73zM2225 1131v-14q15 -61 57 -61h14q58 12 58 64v11q0 45 -37 65l-18 5h-10q-64 -8 -64 -70zM770 1150v-82q0 -5 7 -5q77 0 77 45q0 34 -47 42h-37zM2966 753l24 -28
l-51 -55q-18 12 -27 26zM1524 727l85 -54q0 -15 -21 -42l-87 54q18 41 23 42zM2850 693h38l55 -60h-54l-21 26l-23 -26h-54q54 60 59 60zM3422 693h40l56 -60h-54l-24 26h-1q0 -5 -19 -26h-54zM622 685h52q8 -4 47 -137l34 -110q9 8 34 100l48 147h54v-2l-112 -326h-44z
M1159 685h51v-54h-51v54zM1354 685h46l6 -5v-323h-52v328zM2317 685h45l4 -5v-78h31v-52h-31v-193h-53v193h-26v52h26v78zM2425 685h52v-98h2q23 23 54 23h3q57 0 81 -71l3 -38v-144h-52v115q0 81 -39 81h-10q-42 0 -42 -87v-109h-52v328zM2664 685h52v-54h-52v54zM3028 685
h44l6 -5v-78h29v-52h-29v-193h-54v193h-27v52h27v78zM3234 685h52v-328h-52v328zM3957 685h52v-328h-52v328zM4316 685h51v-54h-51v54zM1555 610h5q83 0 110 -102l3 -23v-11q0 -83 -85 -120l-35 -5q-76 0 -111 97l-4 32q0 97 93 130zM1811 610h4q53 0 78 -60q7 -25 7 -81
v-112h-54v146q-7 50 -37 50h-10q-38 0 -42 -57v-139h-54v245h49v-21q26 29 59 29zM2046 610h4q45 0 63 -39h3v31h49v-206q0 -102 -89 -135l-28 -3h-5q-73 0 -106 81h52l37 -20l15 -3h14q50 0 61 72q-33 -39 -73 -39q-62 0 -98 76q-11 23 -12 60q0 85 86 123zM2866 610h2
q82 0 111 -104l2 -25l-2 -27h-172q15 -45 45 -45l14 -3q29 0 49 22h57v-3q-35 -76 -108 -76q-77 0 -111 97l-1 28v8q0 49 32 89q34 39 82 39zM3429 610h5q41 0 70 -39h2v31h47v-245h-47v31h-2q-35 -39 -77 -39q-71 0 -101 89l-5 36v14q0 86 84 120zM3711 610h7
q88 0 107 -128l-2 -1v-15q0 -65 -66 -106q-21 -11 -46 -11q-34 0 -64 32v-99l-5 -5h-49v325h49v-28q31 36 69 36zM4151 610q44 0 75 -39v31h49v-245h-49v31q-35 -39 -77 -39q-92 0 -108 132q0 84 73 121q15 8 37 8zM922 602h50v-136q3 -60 42 -60h5q44 0 44 87v109h52v-245
h-47v24h-5q0 -23 -56 -32h-3q-55 0 -82 68q-4 35 -4 99v81zM1159 602h51v-245h-51v245zM2664 602h52v-245h-52v245zM4316 602h51v-245h-51v245zM1492 488v-16q13 -66 59 -66h4q59 0 66 76q-13 71 -59 71h-11q-59 -16 -59 -65zM1987 472q15 -66 59 -66h11q48 0 59 75v1
q-13 71 -59 71h-14q-39 0 -56 -57v-24zM2805 506h122v2q-16 45 -59 45h-7q-35 0 -56 -47zM3373 474q13 -68 61 -68h5q52 0 65 63v12q-10 72 -57 72h-16q-56 -14 -56 -63zM3642 478q12 -72 61 -72h3q50 0 65 60v22q0 43 -49 65h-22q-47 0 -58 -72v-3zM4095 472q10 -66 66 -66
q43 0 61 48l2 15v16q0 54 -52 68h-18q-42 0 -59 -60v-21zM3416 321h51v-52h-51v52zM4137 321h51v-52h-51v52zM2733 133h4q35 0 43 -50v-2q0 -16 -24 -41l-10 -17h-28q0 25 28 56l3 2v2q-3 19 -9 19h-10q-8 0 -9 -19h-30q6 50 42 50zM1546 116l52 -60l-26 -19l-52 52zM352 79
h4q75 -48 85 -60l-20 -37q-88 49 -88 58zM3490 79l86 -58l-18 -39q-10 0 -91 55q15 36 23 42zM4578 76l19 -42l-91 -52l-20 39l92 58v-3zM1204 53h51v-19l5 -5h14v-36h-14l-5 -5v-279h-46v31q-34 -40 -81 -40q-72 0 -102 105l-3 26q0 102 101 131h14q33 0 66 -33v59l-6 5
h-43v36h49v24zM1480 45h40l56 -61h-53l-23 27l-23 -27h-53zM2641 45h33q12 0 63 -61h-54l-23 27q-19 -21 -19 -27h-58v4zM49 37h160v-60h-56v-268h-50l-4 5v245l2 3v2l-2 2l2 3l-2 2l2 3l-2 3h-54v54zM699 37h47v-73l2 -2l-2 -3v-3l2 -2l-2 -3v-3l2 -2v-2l-2 -3l2 -3h3
q17 24 51 24h3q53 0 77 -58q7 -17 7 -42v-153h-52v127q0 68 -40 68h-8q-43 0 -43 -86v-109h-52v322zM1297 37h47l5 -6v-49h-52v55zM1987 37h52v-198l70 115h62l-78 -118l90 -125v-2h-70q-10 22 -74 115v-115h-52v328zM2271 37v-99q24 24 53 24q57 0 80 -56q10 -19 10 -77
v-120h-54v133q0 62 -41 62h-11q-31 0 -37 -55v-140h-53v314l-1 3v3l1 2l-1 3l1 3h53zM2458 37h51v-55h-51v55zM3148 37h51v-108q27 33 68 33h3q75 0 105 -94l5 -37q0 -75 -64 -120q-30 -11 -49 -11q-41 0 -72 40v-31h-47v328zM4275 37h52v-99h2q23 24 54 24h3q60 0 82 -74
l2 -41v-138h-52v111q0 82 -32 82l-10 2h-12q-37 0 -37 -80v-115h-52v328zM329 -38h3v-58h-5q-42 0 -42 -57v-138h-53v245h47v-21q18 29 50 29zM564 -38q71 0 86 -87v-166h-51v136q-6 59 -41 59h-6q-45 0 -45 -84v-111h-52v245h50v-21q25 29 59 29zM1504 -38q72 0 105 -94
l5 -39q-2 -24 -7 -24h-169q17 -47 62 -47q24 0 48 21h57q-33 -79 -108 -79q-82 0 -113 105v37q0 81 89 117zM2657 -38h5q77 0 107 -97l3 -26v-21l-3 -13h-170q18 -47 53 -47h12q21 0 42 21h59q-34 -79 -105 -79q-84 0 -115 102l-2 29q0 93 91 128zM2915 -38h4q54 0 78 -60
q7 -25 7 -82v-111h-54v138q0 48 -35 57h-11q-38 0 -43 -57v-138h-54v245h50v-21q25 29 58 29zM3508 -38h6q40 0 70 -40h2v32h47v-245h-47v31h-2q-34 -40 -78 -40q-71 0 -101 90l-4 37v12q0 82 77 117q11 6 30 6zM3781 -38h4q62 0 82 -78l3 -84v-91h-54v138q0 48 -38 57h-9
q-38 0 -42 -52v-143h-54v245h49v-21q26 29 59 29zM4133 -38h1q74 0 104 -93l4 -40q0 -88 -84 -126l-25 -3q-41 0 -68 34v-106h-52v326h47v-29q30 37 73 37zM4714 -38h5q34 0 63 -37q27 37 69 37h6q56 0 79 -66l6 -51v-136h-52v122q0 73 -39 73h-7q-35 0 -41 -50v-140l-5 -5
h-48v140q0 42 -31 55h-17q-40 0 -40 -77v-118h-51v245h47v-21q22 29 56 29zM359 -46h49l5 -6v-234l-5 -5h-49v245zM1297 -46h52v-245h-52v245zM1649 -46h52v-136q4 -60 43 -60h4q44 0 44 81v115h52v-245h-47v24h-5q-12 -33 -59 -33q-52 0 -79 63q-5 12 -5 34v157zM2458 -46
h51v-245h-51v245zM4515 -46h51v-245h-51v245zM1077 -169q0 -53 51 -73h12q54 0 66 66v10q0 53 -54 70h-17q-38 0 -58 -57v-16zM1438 -143h122q-18 47 -53 47h-7q-43 0 -62 -44v-3zM2599 -143h122q-21 47 -54 47h-7q-46 0 -61 -47zM3196 -158v-11q10 -73 61 -73h5q64 8 64 71
v5q0 45 -38 65l-18 5h-14q-60 -14 -60 -62zM3452 -173q14 -69 62 -69h11q41 0 59 60v13q-8 73 -56 73h-17q-47 0 -59 -73v-4zM4062 -158v-22q0 -47 59 -62h9q50 0 61 76q-13 70 -58 70h-15q-56 -17 -56 -62z" />
    <glyph glyph-name=".null" horiz-adv-x="0" 
 />
    <glyph glyph-name="nonmarkingreturn" horiz-adv-x="571" 
 />
    <glyph glyph-name="space" unicode=" " horiz-adv-x="416" 
 />
    <glyph glyph-name="exclam" unicode="!" horiz-adv-x="440" 
d="M152 418l-48 1028h230l-47 -1028h-135zM113 0v227h213v-227h-213z" />
    <glyph glyph-name="quotedbl" unicode="&#x22;" horiz-adv-x="643" 
d="M395 1436h164v-557h-164v557zM86 1436h164v-557h-164v557z" />
    <glyph glyph-name="numbersign" unicode="#" horiz-adv-x="1575" 
d="M709 852l-91 -254h256l91 254h-256zM735 1460h191l-154 -436h250l156 436h190l-154 -436h291l-59 -172h-293l-90 -252h309l-61 -172h-307l-156 -434h-191l156 434h-252l-158 -434h-190l156 434h-299l61 172h297l90 252h-315l61 172h316z" />
    <glyph glyph-name="dollar" unicode="$" horiz-adv-x="831" 
d="M350 932v338q-76 -48 -76 -160q0 -96 76 -178zM471 172q94 31 94 197q0 118 -94 202v-399zM350 -31q-212 39 -282 215l149 135q40 -102 133 -145v479q-270 198 -270 441q0 134 69 239q75 113 201 140v176h121v-174q149 -21 248 -164l-131 -133q-45 78 -117 99v-439
q147 -108 213 -207q82 -122 82 -281q0 -146 -75 -251q-81 -115 -220 -132v-172h-121v174z" />
    <glyph glyph-name="percent" unicode="%" horiz-adv-x="1061" 
d="M881 195v329q0 78 -66 78q-63 0 -63 -76v-331q0 -91 63 -91q66 0 66 91zM1036 231q0 -262 -221 -262t-221 267v260q0 111 58.5 176t168.5 65q105 0 163 -71q52 -66 52 -174v-261zM109 0l653 1446h176l-653 -1446h-176zM307 932v332q0 75 -63 75q-66 0 -66 -75v-332
q0 -88 66 -88q63 0 63 88zM465 969q0 -262 -221 -262t-221 266v260q0 111 57.5 176.5t167.5 65.5q106 0 164 -72q53 -66 53 -174v-260z" />
    <glyph glyph-name="ampersand" unicode="&#x26;" horiz-adv-x="903" 
d="M365 889q112 166 112 291q0 143 -84 143q-48 0 -73 -69q-17 -50 -17 -109q0 -123 62 -256zM315 522q-61 -102 -61 -188q0 -59 30 -97q33 -42 91 -42q67 0 104 57q-71 84 -164 270zM610 88q-101 -121 -252 -121q-144 0 -228 103q-79 96 -79 243q0 190 172 406
q-100 231 -100 414q0 139 69 235q77 107 211 107q126 0 193 -92q61 -82 61 -212q0 -117 -66 -245q-39 -75 -140 -215q60 -131 149 -273q48 90 78 246l186 -49q-21 -180 -131 -367q45 -63 111 -84v-217q-134 10 -234 121z" />
    <glyph glyph-name="quotesingle" unicode="'" horiz-adv-x="334" 
d="M86 1436h164v-557h-164v557z" />
    <glyph glyph-name="parenleft" unicode="(" horiz-adv-x="563" 
d="M537 -131l-142 -86q-293 431 -293 885q0 427 236 807h192q-223 -366 -223 -797q0 -436 230 -809z" />
    <glyph glyph-name="parenright" unicode=")" horiz-adv-x="563" 
d="M27 -131q231 379 231 809q0 427 -225 797h194q234 -375 234 -807q0 -454 -293 -885z" />
    <glyph glyph-name="asterisk" unicode="*" horiz-adv-x="788" 
d="M393 1055l-127 -248l-129 96l197 197l-273 45l50 151l245 -127l-37 277h150l-37 -277l246 127l49 -151l-272 -45l196 -197l-129 -96z" />
    <glyph glyph-name="plus" unicode="+" horiz-adv-x="1706" 
d="M768 1221h170v-527h514v-166h-514v-528h-170v528h-514v166h514v527z" />
    <glyph glyph-name="comma" unicode="," horiz-adv-x="440" 
d="M115 0v227h213v-227l-115 -256h-98l73 256h-73z" />
    <glyph glyph-name="hyphen" unicode="-" horiz-adv-x="635" 
d="M80 457v151h475v-151h-475z" />
    <glyph glyph-name="hyphen" unicode="&#x2010;" horiz-adv-x="635" 
d="M80 457v151h475v-151h-475z" />
    <glyph glyph-name="period" unicode="." horiz-adv-x="440" 
d="M115 0v227h213v-227h-213z" />
    <glyph glyph-name="slash" unicode="/" horiz-adv-x="500" 
d="M-154 -190l586 1665h162l-586 -1665h-162z" />
    <glyph glyph-name="zero" unicode="0" horiz-adv-x="831" 
d="M301 309q0 -135 119 -135q112 0 112 135v846q0 52 -32 83.5t-84 31.5q-50 0 -82.5 -31.5t-32.5 -81.5v-848zM84 1112q0 166 85 263q89 102 253 102q159 0 247 -108q81 -100 81 -263v-741q0 -177 -77 -280q-86 -116 -257 -116q-332 0 -332 402v741z" />
    <glyph glyph-name="one" unicode="1" horiz-adv-x="530" 
d="M-10 1122v146q169 59 248 178h149v-1446h-221v1122h-176z" />
    <glyph glyph-name="two" unicode="2" horiz-adv-x="809" 
d="M61 0v209q455 627 455 897q0 174 -100 174q-63 0 -91 -51q-22 -42 -26 -149l-2 -54h-217v27q0 184 75 294q88 128 263 128q147 0 229 -102q76 -94 76 -245q0 -200 -150 -484q-73 -136 -272 -435h404v-209h-644z" />
    <glyph glyph-name="three" unicode="3" horiz-adv-x="762" 
d="M57 418h211v-60q0 -182 105 -182q119 0 119 207q0 131 -28 187q-41 79 -157 79h-28v203q6 0 17 1t17 1q94 0 131 68q27 50 27 155q0 189 -94 189q-105 0 -105 -158q0 -33 2 -55h-211v12q0 173 69 280q82 128 245 128q291 0 291 -410q0 -238 -125 -311q93 -46 127 -144
q24 -70 24 -198q0 -439 -309 -439q-170 0 -255 125q-73 107 -73 285v37z" />
    <glyph glyph-name="four" unicode="4" horiz-adv-x="817" 
d="M422 543v528l-180 -528h180zM51 352v191l371 903h209v-903h135v-191h-135v-352h-209v352h-371z" />
    <glyph glyph-name="five" unicode="5" horiz-adv-x="786" 
d="M84 403h199v-73q0 -164 116 -164q103 0 103 143v369q0 119 -94 119q-88 0 -123 -117l-183 8l25 758h545l8 -209h-377l-18 -340q96 94 200 94q220 0 220 -305v-367q0 -157 -81 -250q-85 -100 -239 -100q-301 0 -301 391v43z" />
    <glyph glyph-name="six" unicode="6" horiz-adv-x="831" 
d="M309 608v-299q0 -58 30 -95q33 -40 89 -40q111 0 111 135v281q0 112 -97 112q-77 0 -133 -94zM758 365q0 -177 -78 -280q-87 -116 -258 -116q-332 0 -332 402v741q0 166 86 263q90 102 254 102q158 0 246 -109q82 -100 82 -262v-45h-219v94q0 51 -32 83t-83 32
q-50 0 -82.5 -31.5t-32.5 -81.5v-356q88 92 205 92q123 0 186 -81q58 -73 58 -200v-247z" />
    <glyph glyph-name="seven" unicode="7" horiz-adv-x="649" 
d="M12 1237v209h606v-158l-270 -1288h-215l266 1237h-387z" />
    <glyph glyph-name="eight" unicode="8" horiz-adv-x="762" 
d="M385 879q96 0 96 208q0 97 -10 134q-21 79 -90 79q-68 0 -89 -77q-11 -39 -11 -133q0 -96 11 -135q22 -76 93 -76zM387 174q107 0 107 234q0 104 -11 149q-23 92 -96 92q-78 0 -104 -75q-15 -43 -15 -142q0 -114 12 -161q26 -97 107 -97zM203 770q-121 86 -121 328
q0 377 301 377q297 0 297 -375q0 -242 -119 -332q141 -74 141 -379q0 -420 -319 -420q-324 0 -324 439q0 269 144 362z" />
    <glyph glyph-name="nine" unicode="9" horiz-adv-x="831" 
d="M520 838v299q0 133 -119 133q-110 0 -110 -148v-202q0 -170 110 -170q79 0 119 88zM72 340v45h219v-96q0 -115 115 -115q50 0 82 32.5t32 82.5v356q-78 -82 -174 -82q-283 0 -283 447q0 467 345 467q331 0 331 -402v-741q0 -167 -86 -264q-89 -101 -254 -101
q-158 0 -246 109q-81 100 -81 262z" />
    <glyph glyph-name="colon" unicode=":" horiz-adv-x="440" 
d="M115 0v227h213v-227h-213zM115 408v227h213v-227h-213z" />
    <glyph glyph-name="semicolon" unicode=";" horiz-adv-x="440" 
d="M115 408v227h213v-227h-213zM115 0v227h213v-227l-115 -256h-98l73 256h-73z" />
    <glyph glyph-name="less" unicode="&#x3c;" horiz-adv-x="1706" 
d="M1442 1176v-185l-934 -381l934 -381v-182l-1178 483v160z" />
    <glyph glyph-name="equal" unicode="=" horiz-adv-x="1706" 
d="M254 487h1198v-165h-1198v165zM254 901h1198v-168h-1198v168z" />
    <glyph glyph-name="greater" unicode="&#x3e;" horiz-adv-x="1706" 
d="M264 1176l1178 -486v-160l-1178 -483v182l934 381l-934 381v185z" />
    <glyph glyph-name="question" unicode="?" horiz-adv-x="631" 
d="M203 426q0 10 -1 29.5t-1 29.5q0 207 63 375q5 14 80 166q57 115 57 158q0 96 -84 96q-72 0 -137 -154l-174 72q80 277 307 277q132 0 210.5 -74t78.5 -205q0 -102 -71 -234q-108 -202 -115 -219q-41 -105 -41 -243v-37q1 -25 1 -37h-173zM182 0v238h215v-238h-215z" />
    <glyph glyph-name="at" unicode="@" horiz-adv-x="2048" 
d="M1174 283q-106 -168 -304 -168q-313 0 -313 336q0 217 125 380q135 177 346 177q172 0 248 -142l55 107h154l-148 -586q-1 -4 -2 -12q-6 -30 -6 -37q0 -84 96 -84q106 0 213 115q148 159 148 393q0 272 -207 428q-188 141 -469 141q-274 0 -471 -125q-377 -239 -377 -686
q0 -327 224 -513q210 -173 544 -173q340 0 615 191l67 -99q-299 -227 -674 -227q-384 0 -632 190q-308 236 -308 633q0 336 205 586q299 365 813 365q346 0 570 -173q264 -204 264 -536q0 -338 -250 -539q-139 -112 -318 -112q-208 0 -208 166v4zM1233 707q-29 176 -184 176
q-146 0 -234 -153q-74 -129 -74 -286q0 -204 174 -204q97 0 171 73q68 67 92 166z" />
    <glyph glyph-name="A" unicode="A" horiz-adv-x="791" 
d="M12 0l238 1446h291l237 -1446h-229l-45 313h-225l-48 -313h-219zM307 518h170l-76 604h-14z" />
    <glyph glyph-name="B" unicode="B" horiz-adv-x="868" 
d="M336 844h90q129 0 129 198q0 195 -147 195h-72v-393zM336 209h96q139 0 139 207q0 106 -29 155q-37 64 -134 64h-72v-426zM115 0v1446h295q179 0 275.5 -98.5t96.5 -278.5q0 -214 -155 -330q174 -100 174 -352q0 -387 -357 -387h-329z" />
    <glyph glyph-name="C" unicode="C" horiz-adv-x="850" 
d="M88 371v741q0 169 90 265q93 100 260 100q162 0 252 -106q84 -100 84 -265v-139h-229v159q0 150 -115 150t-115 -150v-807q0 -151 115 -151t115 151v197h229v-151q0 -180 -81 -283q-89 -113 -263 -113q-342 0 -342 402z" />
    <glyph glyph-name="D" unicode="D" horiz-adv-x="881" 
d="M336 213h113q116 0 116 152v696q0 172 -178 172h-51v-1020zM115 0v1446h317q361 0 361 -397v-646q0 -199 -75 -295q-84 -108 -276 -108h-327z" />
    <glyph glyph-name="E" unicode="E" horiz-adv-x="754" 
d="M115 0v1446h581v-209h-358v-379h258v-209h-258v-432h358v-217h-581z" />
    <glyph glyph-name="F" unicode="F" horiz-adv-x="684" 
d="M115 0v1446h581v-209h-358v-379h258v-209h-258v-649h-223z" />
    <glyph glyph-name="G" unicode="G" horiz-adv-x="852" 
d="M88 371v741q0 169 90 265q93 100 260 100q322 0 322 -371v-133h-215v153q0 150 -115 150t-115 -150v-807q0 -151 115 -151t115 151v226h-135v184h350v-729l-150 100q-72 -131 -215 -131q-307 0 -307 402z" />
    <glyph glyph-name="H" unicode="H" horiz-adv-x="897" 
d="M115 1446h221v-590h223v590h223v-1446h-223v647h-223v-647h-221v1446z" />
    <glyph glyph-name="I" unicode="I" horiz-adv-x="451" 
d="M115 0v1446h227v-1446h-227z" />
    <glyph glyph-name="J" unicode="J" horiz-adv-x="473" 
d="M-12 0v223l16.5 -2t28.5 -2q117 0 117 121v1106h223v-1063q0 -383 -260 -383h-125z" />
    <glyph glyph-name="K" unicode="K" horiz-adv-x="840" 
d="M115 0v1446h223v-610q17 62 31 94l221 516h221l-248 -494l277 -952h-232l-188 727l-82 -164v-563h-223z" />
    <glyph glyph-name="L" unicode="L" horiz-adv-x="692" 
d="M680 0l16 216q-164 -1 -180.5 -3t-28.5 -2q-117 0 -117 121v1106h-223v-1063q0 -195 64 -289q67 -98 196 -94z" />
    <glyph glyph-name="M" unicode="M" horiz-adv-x="1149" 
d="M115 0v1446h297l145 -801q18 -99 18 -217q0 94 21 215l139 803h301v-1446h-209v913q0 80 17 252q0 -3 -13 -80q-10 -62 -22 -125l-182 -960h-111l-174 961q-10 72 -35 204q15 -159 15 -252v-913h-207z" />
    <glyph glyph-name="N" unicode="N" horiz-adv-x="938" 
d="M115 0v1446h200l283 -864q17 -51 43 -154q-25 143 -25 195v823h209v-1446h-209l-272 799q0 1 -1 3l-4 12q-29 86 -42 142q25 -158 25 -200v-756h-207z" />
    <glyph glyph-name="O" unicode="O" horiz-adv-x="862" 
d="M545 319v807q0 150 -115 150t-115 -150v-807q0 -151 115 -151t115 151zM88 1112q0 169 90 265q93 100 260 100q162 0 252 -106q84 -100 84 -265v-741q0 -180 -81 -283q-89 -113 -263 -113q-342 0 -342 402v741z" />
    <glyph glyph-name="P" unicode="P" horiz-adv-x="829" 
d="M336 795h88q91 0 120 74q17 43 17 155q0 107 -21 149q-31 64 -124 64h-80v-442zM113 0v1446h327q195 0 278 -115q70 -98 70 -303q0 -175 -61 -292q-78 -148 -238 -148h-153v-588h-223z" />
    <glyph glyph-name="Q" unicode="Q" horiz-adv-x="860" 
d="M513 319v807q0 150 -115 150t-115 -150v-807q0 -151 115 -151t115 151zM712 167q23 -44 81 -44h11v-221h-25q-151 0 -213 116q-84 -49 -182 -49q-169 0 -254 121q-74 104 -74 281v741q0 169 90 265q93 100 260 100q162 0 252 -106q84 -100 84 -265v-741q0 -127 -30 -198z
" />
    <glyph glyph-name="R" unicode="R" horiz-adv-x="854" 
d="M336 1237v-420h88q89 0 119 70q18 43 18 149q0 101 -23 143q-31 58 -122 58h-80zM336 608v-608h-223v1446h327q195 0 278 -115q70 -98 70 -303q0 -258 -141 -356l164 -672h-231l-138 608h-106z" />
    <glyph glyph-name="S" unicode="S" horiz-adv-x="803" 
d="M47 367l213 32q12 -215 148 -215q62 0 99.5 39t37.5 101q0 113 -180 292l-21 21q-138 138 -188 210q-88 128 -88 261q0 150 98.5 256t247.5 106q150 0 240 -106q82 -97 94 -252l-218 -31q-11 181 -122 181q-119 0 -119 -134q0 -126 210 -329l13 -13q129 -125 177 -203
q73 -116 73 -255q0 -155 -96 -258t-250 -103q-174 0 -272 115q-89 106 -97 285z" />
    <glyph glyph-name="T" unicode="T" horiz-adv-x="662" 
d="M-12 1237v209h686v-209h-232v-1237h-223v1237h-231z" />
    <glyph glyph-name="U" unicode="U" horiz-adv-x="885" 
d="M98 1446h228v-1120q0 -138 118 -138q113 0 113 138v1120h227v-1081q0 -180 -79 -283q-88 -113 -263 -113q-344 0 -344 402v1075z" />
    <glyph glyph-name="V" unicode="V" horiz-adv-x="786" 
d="M20 1446h218l133 -856q24 -154 24 -301v-26q6 204 25 327l129 856h219l-256 -1446h-233z" />
    <glyph glyph-name="W" unicode="W" horiz-adv-x="1126" 
d="M12 1446h213l99 -857q14 -121 14 -227v-28q0 14 4 79q9 168 14 205l111 828h190l119 -856q15 -108 15 -256q0 4 2 42q10 185 16 242l92 828h211l-225 -1446h-187l-122 839q-15 103 -15 257q-2 -96 -18 -284l-119 -812h-186z" />
    <glyph glyph-name="X" unicode="X" horiz-adv-x="764" 
d="M-4 0l264 735l-260 711h231l136 -426h10l143 426h228l-252 -692l274 -754h-233l-146 471h-8l-158 -471h-229z" />
    <glyph glyph-name="Y" unicode="Y" horiz-adv-x="702" 
d="M-25 1446h226l145 -578h14l138 578h227l-260 -846v-600h-223v573z" />
    <glyph glyph-name="Z" unicode="Z" horiz-adv-x="774" 
d="M63 0v223l400 1000h-367v223h609v-209l-404 -1014h404v-223h-642z" />
    <glyph glyph-name="bracketleft" unicode="[" horiz-adv-x="563" 
d="M141 -186v1661h355v-185h-154v-1290h154v-186h-355z" />
    <glyph glyph-name="backslash" unicode="\" horiz-adv-x="500" 
d="M653 -190h-164l-585 1665h164z" />
    <glyph glyph-name="bracketright" unicode="]" horiz-adv-x="563" 
d="M422 -186h-352v186h153v1290h-153v185h352v-1661z" />
    <glyph glyph-name="asciicircum" unicode="^" horiz-adv-x="2048" 
d="M915 1460h218l495 -561h-207l-397 397l-399 -397h-207z" />
    <glyph glyph-name="underscore" unicode="_" horiz-adv-x="1024" 
d="M0 -311h1024v-172h-1024v172z" />
    <glyph glyph-name="grave" unicode="`" horiz-adv-x="1024" 
d="M467 1167l-188 222h251l99 -222h-162z" />
    <glyph glyph-name="a" unicode="a" 
d="M452 472h-176l3 -188q2 -125 86 -125q89 0 88 125zM658 765v-479q0 -137 -81 -224q-84 -90 -220 -90t-209.5 81.5t-73.5 273.5q0 340 378 325l1 107q1 149 -86 149q-49 0 -103 -20l-80 156l160 48q314 6 314 -327z" />
    <glyph glyph-name="b" unicode="b" horiz-adv-x="741" 
d="M297 203q45 -49 94 -49q70 0 70 96v551q0 110 -82 110q-43 0 -82 -43v-665zM96 0v1446h201v-465q82 100 176 100q193 0 193 -268v-592q0 -235 -181 -235q-112 0 -188 96v-82h-201z" />
    <glyph glyph-name="c" unicode="c" 
d="M76 301v471q0 142 78 230q81 92 221 92q139 0 214 -89q70 -83 70 -225v-84h-204v86q0 125 -86 125q-88 0 -88 -125v-475q0 -149 86 -149q60 0 78 48q10 26 10 101v82h204v-88q0 -330 -297 -330q-140 0 -216 97q-70 89 -70 233z" />
    <glyph glyph-name="d" unicode="d" horiz-adv-x="741" 
d="M465 203q-45 -49 -94 -49q-70 0 -70 96v551q0 110 82 110q43 0 82 -43v-665zM666 0v1446h-201v-465q-82 100 -176 100q-193 0 -193 -268v-592q0 -235 181 -235q112 0 188 96v-82h201z" />
    <glyph glyph-name="e" unicode="e" 
d="M250 596h176l-3 188q-2 125 -86 125q-89 0 -88 -125zM44 303v479q0 137 82.5 225.5t218.5 88.5t209.5 -81.5t73.5 -273.5q0 -340 -378 -325l-1 -107q-1 -149 86 -149q49 0 103 20l80 -156l-160 -48q-314 -6 -314 327z" />
    <glyph glyph-name="f" unicode="f" horiz-adv-x="477" 
d="M123 0v901h-113v166h113v125q0 254 231 254q59 0 115 -16v-174l-53 10q-94 0 -94 -90v-109h127v-166h-127v-901h-199z" />
    <glyph glyph-name="g" unicode="g" horiz-adv-x="707" 
d="M418 553v248q0 108 -88 108q-86 0 -86 -108v-248q0 -109 86 -109q88 0 88 109zM301 -25q-76 -35 -76 -84q0 -42 54 -66q42 -18 90 -18q59 0 107 16q69 24 69 71q0 79 -244 81zM191 313q-130 81 -130 252v213q0 142 64 225q71 91 209 91q133 0 231 -119q36 -66 36 -92
q0 -7 -3 -11q2 -36 2 -71v-238q0 -289 -256 -287q-7 0 -48 4q-3 0 -5 1q-47 -35 -47 -68q0 -46 117 -53q73 -4 112 -10q252 -37 252 -240q0 -252 -385 -252q-334 0 -334 170q0 53 45 98q38 38 133 76q-123 31 -123 123q0 93 130 188z" />
    <glyph glyph-name="h" unicode="h" horiz-adv-x="756" 
d="M96 0v1446h201v-496q113 131 227 131q140 0 140 -188v-893h-199v805q0 84 -53 84q-51 0 -115 -80v-809h-201z" />
    <glyph glyph-name="i" unicode="i" horiz-adv-x="393" 
d="M96 1247v199h201v-199h-201zM96 0v1067h201v-1067h-201z" />
    <glyph glyph-name="j" unicode="j" horiz-adv-x="403" 
d="M104 1247v199h199v-199h-199zM303 1067v-1149q0 -254 -231 -254q-60 0 -113 17v172q27 -9 59 -9q35 0 60.5 21.5t25.5 56.5v1145h199z" />
    <glyph glyph-name="k" unicode="k" horiz-adv-x="711" 
d="M96 0v1446h201v-770l182 391h213l-198 -358l211 -709h-201l-139 528l-68 -125v-403h-201z" />
    <glyph glyph-name="l" unicode="l" horiz-adv-x="393" 
d="M24 1403v-1149q0 -254 231 -254q60 0 113 17v172q-27 -9 -59 -9q-35 0 -60.5 21.5t-25.5 56.5v1145h-199z" />
    <glyph glyph-name="m" unicode="m" horiz-adv-x="1122" 
d="M96 0v1067h201v-111q103 125 223 125q114 0 142 -125q100 123 221 123q147 0 147 -180v-899h-201v805q0 84 -53 84q-52 0 -114 -80v-809h-185v805q0 84 -57 84q-56 0 -123 -80v-809h-201z" />
    <glyph glyph-name="n" unicode="n" horiz-adv-x="756" 
d="M96 0v1067h201v-117q113 131 227 131q140 0 140 -188v-893h-199v805q0 84 -53 84q-51 0 -115 -80v-809h-201z" />
    <glyph glyph-name="o" unicode="o" horiz-adv-x="727" 
d="M281 250q0 -92 81 -92q87 0 87 92v581q0 78 -87 78q-81 0 -81 -78v-581zM76 823q0 129 84 202q80 69 211 69q123 0 201.5 -77t78.5 -200v-551q0 -137 -76.5 -215t-212.5 -78q-133 0 -210 83q-76 80 -76 214v553z" />
    <glyph glyph-name="p" unicode="p" horiz-adv-x="741" 
d="M297 864v-665q41 -45 82 -45q82 0 82 112v551q0 94 -70 94q-51 0 -94 -47zM96 -336v1403h201v-84q76 98 188 98q181 0 181 -237v-590q0 -268 -193 -268q-94 0 -176 100v-422h-201z" />
    <glyph glyph-name="q" unicode="q" horiz-adv-x="741" 
d="M281 266q0 -112 79 -112q41 0 84 45v665q-43 47 -94 47q-69 0 -69 -94v-551zM76 254v590q0 237 178 237q114 0 190 -98v84h199v-1403h-199v422q-82 -100 -176 -100q-192 0 -192 268z" />
    <glyph glyph-name="r" unicode="r" horiz-adv-x="539" 
d="M96 0v1067h201v-145q76 157 211 157h20v-223q-28 14 -65 14q-166 0 -166 -172v-698h-201z" />
    <glyph glyph-name="s" unicode="s" horiz-adv-x="686" 
d="M29 289l192 43q24 -174 131 -174q92 0 92 94q0 85 -207 240q-186 139 -186 311q0 131 80.5 211t212.5 80q126 0 202 -76q73 -74 82 -201l-188 -45q-22 135 -106 135q-86 0 -86 -94q0 -69 141 -181q29 -23 59 -48q95 -79 136 -139q57 -83 57 -183q0 -133 -81.5 -212
t-215.5 -79q-136 0 -221 93q-76 84 -94 225z" />
    <glyph glyph-name="t" unicode="t" horiz-adv-x="545" 
d="M150 225v676h-123l29 171l94 -5v307h198v-307h148v-166h-148v-657q0 -92 88 -92q19 0 59 10l1 -174q-53 -17 -115 -17q-231 0 -231 254z" />
    <glyph glyph-name="u" unicode="u" horiz-adv-x="756" 
d="M657 1067v-1067h-198v117q-113 -133 -230 -133q-139 0 -139 190v893h199v-819q0 -72 53 -72t117 80v811h198z" />
    <glyph glyph-name="v" unicode="v" horiz-adv-x="614" 
d="M0 1067h184l123 -657h10l101 657h196l-206 -1067h-183z" />
    <glyph glyph-name="w" unicode="w" horiz-adv-x="940" 
d="M0 1067h190l80 -511q12 -79 21 -261q2 105 26 260l80 512h152l88 -512q23 -136 29 -260v43q0 138 12 217l78 512h184l-182 -1067h-174l-92 520q-13 75 -19 243q-4 -82 -20 -244l-78 -519h-176z" />
    <glyph glyph-name="x" unicode="x" horiz-adv-x="621" 
d="M-4 0l203 557l-189 510h199l96 -287h10l95 287h204l-196 -506l203 -561h-195l-113 328h-8l-115 -328h-194z" />
    <glyph glyph-name="y" unicode="y" horiz-adv-x="653" 
d="M16 1067h187l123 -684h8l100 684h199l-225 -1141q-27 -135 -89 -196q-69 -66 -202 -66q-52 0 -80 3v190h37q87 0 123 41q33 38 39 127z" />
    <glyph glyph-name="z" unicode="z" horiz-adv-x="635" 
d="M53 0v178l326 703h-301v186h508v-176l-312 -701h312v-190h-533z" />
    <glyph glyph-name="braceleft" unicode="{" horiz-adv-x="1024" 
d="M874 1477v-179q-8 0 -23.5 1t-23.5 1q-116 0 -154 -50q-32 -43 -32 -165v-241q0 -141 -35 -204q-44 -80 -168 -110q124 -29 168 -109q35 -64 35 -204v-240q0 -122 33 -166q39 -51 155 -51q8 0 22.5 1t22.5 1v-176h-63q-189 0 -272 49q-69 41 -91 133q-12 52 -12 166v248
q0 136 -47 195q-52 67 -184 67q-7 0 -21.5 -1t-21.5 -1v179q7 0 21.5 -1.5t21.5 -1.5q131 0 184 66q47 59 47 195v247q0 117 12 168q21 92 91 133q84 50 290 50h45z" />
    <glyph glyph-name="bar" unicode="|" horiz-adv-x="1024" 
d="M424 1565h178v-2048h-178v2048z" />
    <glyph glyph-name="braceright" unicode="}" horiz-adv-x="1024" 
d="M152 1477h45q204 0 288 -50q69 -41 91 -133q12 -52 12 -168v-247q0 -137 47 -195q52 -66 184 -66q7 0 21.5 1.5t21.5 1.5v-179q-7 0 -21.5 1t-21.5 1q-132 0 -184 -67q-47 -59 -47 -195v-248q0 -115 -12 -167q-22 -90 -91 -132q-82 -49 -288 -49h-45v176q8 0 22.5 -1
t22.5 -1q116 0 154 51q32 43 32 166v240q0 139 36 204q45 79 169 109q-125 30 -169 109q-36 65 -36 205v241q0 122 -31 164q-38 51 -153 51q-8 0 -23.5 -1t-23.5 -1v179z" />
    <glyph glyph-name="asciitilde" unicode="~" horiz-adv-x="1706" 
d="M1530 784v-184q-205 -141 -381 -141q-89 0 -200 38l-67 23q-212 74 -319 74q-158 0 -385 -160v187q211 143 387 143q117 0 294 -60q1 0 42 -15q162 -58 250 -58q166 0 379 153z" />
    <glyph glyph-name="dieresis" unicode="&#xa8;" horiz-adv-x="1024" 
 />
    <glyph glyph-name="copyright" unicode="&#xa9;" horiz-adv-x="1706" 
d="M1206 903h-166q-21 154 -190 154q-115 0 -170 -112q-41 -86 -41 -214q0 -317 221 -317q166 0 189 168h165q-7 -142 -115 -224q-98 -75 -245 -75q-192 0 -298 127q-99 119 -99 315q0 197 100 321q109 134 301 134q137 0 233 -69q105 -76 115 -208zM854 1362
q-265 0 -444 -182q-187 -190 -187 -449q0 -257 187 -444t444 -187q188 0 350.5 108t234.5 282q46 112 46 241q0 265 -183 448t-448 183zM852 1470q310 0 525.5 -216.5t215.5 -522.5q0 -311 -213 -520q-225 -221 -528 -221q-221 0 -409.5 127.5t-273.5 332.5q-56 134 -56 281
q0 300 221 524q212 215 518 215z" />
    <glyph glyph-name="registered" unicode="&#xae;" horiz-adv-x="1706" 
d="M729 1047v-261h117q192 0 192 127q0 134 -200 134h-109zM551 1159h319q351 0 351 -225q0 -190 -185 -229l185 -375h-199l-164 346h-129v-346h-178v829zM854 1362q-262 0 -440 -180q-191 -193 -191 -451q0 -257 183 -442q187 -189 438 -189q266 0 456 185q185 180 185 436
q0 272 -180 453q-187 188 -451 188zM852 1470q313 0 530 -221q211 -215 211 -518q0 -313 -217 -524q-223 -217 -524 -217q-304 0 -524 223q-215 218 -215 518q0 221 127 412t331 274q130 53 281 53z" />
    <glyph glyph-name="acute" unicode="&#xb4;" horiz-adv-x="1024" 
 />
    <glyph glyph-name="paragraph" unicode="&#xb6;" horiz-adv-x="1024" 
d="M929 1435v-70h-127v-1365h-82v1365h-166v-1365h-84v738q-174 8 -275.5 102.5t-101.5 245.5q0 157 107.5 253t285.5 96h443z" />
    <glyph glyph-name="onequarter" unicode="&#xbc;" horiz-adv-x="1126" 
d="M877 303v297l-115 -297h115zM643 197v106l234 506h131v-506h86v-106h-86v-197h-131v197h-234zM57 0l654 1446h176l-654 -1446h-176zM-6 1264v82q106 32 156 98h94v-809h-140v629h-110z" />
    <glyph glyph-name="onehalf" unicode="&#xbd;" horiz-adv-x="1120" 
d="M649 0v117q287 350 287 501q0 99 -64 99q-38 0 -54 -25q-15 -21 -19 -87l-2 -30h-135v15q0 235 212 235q88 0 139.5 -52t51.5 -140q0 -113 -95 -274q-45 -75 -169 -242h254v-117h-406zM57 0l654 1446h176l-654 -1446h-176zM-6 1264v82q106 32 156 98h94v-809h-140v629
h-110z" />
    <glyph glyph-name="threequarters" unicode="&#xbe;" horiz-adv-x="1272" 
d="M1022 303v297l-115 -297h115zM788 197v106l234 506h131v-506h86v-106h-86v-197h-131v197h-234zM203 0l653 1446h176l-653 -1446h-176zM37 868h133v-32q0 -103 66 -103q73 0 73 117q0 75 -19 107q-26 42 -95 42h-19v113q4 0 10.5 1t10.5 1q100 0 100 125q0 104 -59 104
q-66 0 -66 -88v-30h-131v6q0 229 197 229q182 0 182 -229q0 -136 -78 -174q96 -42 96 -193q0 -246 -196 -246q-205 0 -205 230v20z" />
    <glyph glyph-name="Agrave" unicode="&#xc0;" horiz-adv-x="791" 
d="M12 0l238 1446h291l237 -1446h-229l-45 313h-225l-48 -313h-219zM307 518h170l-76 604h-14zM350 1519l-188 222h251l99 -222h-162z" />
    <glyph glyph-name="Aacute" unicode="&#xc1;" horiz-adv-x="791" 
d="M12 0l238 1446h291l237 -1446h-229l-45 313h-225l-48 -313h-219zM307 518h170l-76 604h-14zM442 1519h-162l97 222h254z" />
    <glyph glyph-name="Acircumflex" unicode="&#xc2;" horiz-adv-x="791" 
d="M12 0l238 1446h291l237 -1446h-229l-45 313h-225l-48 -313h-219zM307 518h170l-76 604h-14zM305 1519h-162l154 222h196l154 -222h-162l-90 109z" />
    <glyph glyph-name="Atilde" unicode="&#xc3;" horiz-adv-x="791" 
d="M12 0l238 1446h291l237 -1446h-229l-45 313h-225l-48 -313h-219zM307 518h170l-76 604h-14zM649 1732v-16q0 -186 -158 -186q-41 0 -107 30.5t-85 30.5q-51 0 -51 -55v-8h-107v16q0 184 158 184q41 0 107 -30.5t85 -30.5q51 0 51 57v8h107z" />
    <glyph glyph-name="Egrave" unicode="&#xc8;" horiz-adv-x="754" 
d="M115 0v1446h581v-209h-358v-379h258v-209h-258v-432h358v-217h-581zM365 1519l-188 222h251l99 -222h-162z" />
    <glyph glyph-name="Eacute" unicode="&#xc9;" horiz-adv-x="754" 
d="M115 0v1446h581v-209h-358v-379h258v-209h-258v-432h358v-217h-581zM457 1519h-162l97 222h254z" />
    <glyph glyph-name="Ecircumflex" unicode="&#xca;" horiz-adv-x="754" 
d="M115 0v1446h581v-209h-358v-379h258v-209h-258v-432h358v-217h-581zM320 1519h-162l154 222h196l154 -222h-162l-90 109z" />
    <glyph glyph-name="Igrave" unicode="&#xcc;" horiz-adv-x="451" 
d="M115 0v1446h227v-1446h-227zM180 1519l-188 222h251l99 -222h-162z" />
    <glyph glyph-name="Iacute" unicode="&#xcd;" horiz-adv-x="451" 
d="M115 0v1446h227v-1446h-227zM272 1519h-162l97 222h254z" />
    <glyph glyph-name="Ograve" unicode="&#xd2;" horiz-adv-x="862" 
d="M545 319v807q0 150 -115 150t-115 -150v-807q0 -151 115 -151t115 151zM88 1112q0 169 90 265q93 100 260 100q162 0 252 -106q84 -100 84 -265v-741q0 -180 -81 -283q-89 -113 -263 -113q-342 0 -342 402v741zM387 1519l-188 222h251l99 -222h-162z" />
    <glyph glyph-name="Oacute" unicode="&#xd3;" horiz-adv-x="862" 
d="M545 319v807q0 150 -115 150t-115 -150v-807q0 -151 115 -151t115 151zM88 1112q0 169 90 265q93 100 260 100q162 0 252 -106q84 -100 84 -265v-741q0 -180 -81 -283q-89 -113 -263 -113q-342 0 -342 402v741zM479 1519h-162l97 222h254z" />
    <glyph glyph-name="Ocircumflex" unicode="&#xd4;" horiz-adv-x="862" 
d="M545 319v807q0 150 -115 150t-115 -150v-807q0 -151 115 -151t115 151zM88 1112q0 169 90 265q93 100 260 100q162 0 252 -106q84 -100 84 -265v-741q0 -180 -81 -283q-89 -113 -263 -113q-342 0 -342 402v741zM342 1519h-162l154 222h196l154 -222h-162l-90 109z" />
    <glyph glyph-name="Otilde" unicode="&#xd5;" horiz-adv-x="862" 
d="M545 319v807q0 150 -115 150t-115 -150v-807q0 -151 115 -151t115 151zM88 1112q0 169 90 265q93 100 260 100q162 0 252 -106q84 -100 84 -265v-741q0 -180 -81 -283q-89 -113 -263 -113q-342 0 -342 402v741zM686 1732v-16q0 -186 -158 -186q-41 0 -107 30.5t-85 30.5
q-51 0 -51 -55v-8h-107v16q0 184 158 184q41 0 107 -30.5t85 -30.5q51 0 51 57v8h107z" />
    <glyph glyph-name="Ugrave" unicode="&#xd9;" horiz-adv-x="885" 
d="M98 1446h228v-1120q0 -138 118 -138q113 0 113 138v1120h227v-1081q0 -180 -79 -283q-88 -113 -263 -113q-344 0 -344 402v1075zM397 1519l-188 222h251l99 -222h-162z" />
    <glyph glyph-name="Uacute" unicode="&#xda;" horiz-adv-x="885" 
d="M98 1446h228v-1120q0 -138 118 -138q113 0 113 138v1120h227v-1081q0 -180 -79 -283q-88 -113 -263 -113q-344 0 -344 402v1075zM489 1519h-162l97 222h254z" />
    <glyph glyph-name="Yacute" unicode="&#xdd;" horiz-adv-x="702" 
d="M-25 1446h226l145 -578h14l138 578h227l-260 -846v-600h-223v573zM399 1519h-162l97 222h254z" />
    <glyph glyph-name="agrave" unicode="&#xe0;" 
d="M452 472h-176l3 -188q2 -125 86 -125q89 0 88 125zM658 765v-479q0 -137 -81 -224q-84 -90 -220 -90t-209.5 81.5t-73.5 273.5q0 340 378 325l1 107q1 149 -86 149q-49 0 -103 -20l-80 156l160 48q314 6 314 -327zM336 1167l-188 222h251l99 -222h-162z" />
    <glyph glyph-name="aacute" unicode="&#xe1;" 
d="M452 472h-176l3 -188q2 -125 86 -125q89 0 88 125zM658 765v-479q0 -137 -81 -224q-84 -90 -220 -90t-209.5 81.5t-73.5 273.5q0 340 378 325l1 107q1 149 -86 149q-49 0 -103 -20l-80 156l160 48q314 6 314 -327zM428 1167h-162l97 222h254z" />
    <glyph glyph-name="acircumflex" unicode="&#xe2;" 
d="M452 472h-176l3 -188q2 -125 86 -125q89 0 88 125zM658 765v-479q0 -137 -81 -224q-84 -90 -220 -90t-209.5 81.5t-73.5 273.5q0 340 378 325l1 107q1 149 -86 149q-49 0 -103 -20l-80 156l160 48q314 6 314 -327zM291 1167h-162l154 222h196l154 -222h-162l-90 109z" />
    <glyph glyph-name="atilde" unicode="&#xe3;" 
d="M452 472h-176l3 -188q2 -125 86 -125q89 0 88 125zM658 765v-479q0 -137 -81 -224q-84 -90 -220 -90t-209.5 81.5t-73.5 273.5q0 340 378 325l1 107q1 149 -86 149q-49 0 -103 -20l-80 156l160 48q314 6 314 -327zM635 1380v-16q0 -186 -158 -186q-41 0 -107 30.5
t-85 30.5q-51 0 -51 -55v-8h-107v16q0 184 158 184q41 0 107 -30.5t85 -30.5q51 0 51 57v8h107z" />
    <glyph glyph-name="egrave" unicode="&#xe8;" 
d="M250 596h176l-3 188q-2 125 -86 125q-89 0 -88 -125zM44 303v479q0 137 82.5 225.5t218.5 88.5t209.5 -81.5t73.5 -273.5q0 -340 -378 -325l-1 -107q-1 -149 86 -149q49 0 103 20l80 -156l-160 -48q-314 -6 -314 327zM332 1167l-188 222h251l99 -222h-162z" />
    <glyph glyph-name="eacute" unicode="&#xe9;" 
d="M250 596h176l-3 188q-2 125 -86 125q-89 0 -88 -125zM44 303v479q0 137 82.5 225.5t218.5 88.5t209.5 -81.5t73.5 -273.5q0 -340 -378 -325l-1 -107q-1 -149 86 -149q49 0 103 20l80 -156l-160 -48q-314 -6 -314 327zM424 1167h-162l97 222h254z" />
    <glyph glyph-name="ecircumflex" unicode="&#xea;" 
d="M251 596h176l-3 188q-2 125 -86 125q-89 0 -88 -125zM45 303v479q0 137 82.5 225.5t218.5 88.5t209.5 -81.5t73.5 -273.5q0 -340 -378 -325l-1 -107q-1 -149 86 -149q49 0 103 20l80 -156l-160 -48q-314 -6 -314 327zM247 1167h-162l154 222h196l154 -222h-162l-90 109z
" />
    <glyph glyph-name="igrave" unicode="&#xec;" horiz-adv-x="393" 
d="M96 0v1067h201v-1067h-201zM152 1167l-188 222h251l99 -222h-162z" />
    <glyph glyph-name="iacute" unicode="&#xed;" horiz-adv-x="393" 
d="M96 0v1067h201v-1067h-201zM244 1167h-162l97 222h254z" />
    <glyph glyph-name="ograve" unicode="&#xf2;" horiz-adv-x="727" 
d="M281 250q0 -92 81 -92q87 0 87 92v581q0 78 -87 78q-81 0 -81 -78v-581zM76 823q0 129 84 202q80 69 211 69q123 0 201.5 -77t78.5 -200v-551q0 -137 -76.5 -215t-212.5 -78q-133 0 -210 83q-76 80 -76 214v553zM320 1167l-188 222h251l99 -222h-162z" />
    <glyph glyph-name="oacute" unicode="&#xf3;" horiz-adv-x="727" 
d="M281 250q0 -92 81 -92q87 0 87 92v581q0 78 -87 78q-81 0 -81 -78v-581zM76 823q0 129 84 202q80 69 211 69q123 0 201.5 -77t78.5 -200v-551q0 -137 -76.5 -215t-212.5 -78q-133 0 -210 83q-76 80 -76 214v553zM412 1167h-162l97 222h254z" />
    <glyph glyph-name="ocircumflex" unicode="&#xf4;" horiz-adv-x="727" 
d="M281 250q0 -92 81 -92q87 0 87 92v581q0 78 -87 78q-81 0 -81 -78v-581zM76 823q0 129 84 202q80 69 211 69q123 0 201.5 -77t78.5 -200v-551q0 -137 -76.5 -215t-212.5 -78q-133 0 -210 83q-76 80 -76 214v553zM275 1167h-162l154 222h196l154 -222h-162l-90 109z" />
    <glyph glyph-name="otilde" unicode="&#xf5;" horiz-adv-x="727" 
d="M281 250q0 -92 81 -92q87 0 87 92v581q0 78 -87 78q-81 0 -81 -78v-581zM76 823q0 129 84 202q80 69 211 69q123 0 201.5 -77t78.5 -200v-551q0 -137 -76.5 -215t-212.5 -78q-133 0 -210 83q-76 80 -76 214v553zM619 1380v-16q0 -186 -158 -186q-41 0 -107 30.5t-85 30.5
q-51 0 -51 -55v-8h-107v16q0 184 158 184q41 0 107 -30.5t85 -30.5q51 0 51 57v8h107z" />
    <glyph glyph-name="divide" unicode="&#xf7;" horiz-adv-x="1706" 
 />
    <glyph glyph-name="glyph216" unicode="&#xf9;" horiz-adv-x="756" 
d="M657 1067v-1067h-198v117q-113 -133 -230 -133q-139 0 -139 190v893h199v-819q0 -72 53 -72t117 80v811h198zM334 1167l-188 222h251l99 -222h-162z" />
    <glyph glyph-name="glyph217" unicode="&#xfa;" horiz-adv-x="756" 
d="M657 1067v-1067h-198v117q-113 -133 -230 -133q-139 0 -139 190v893h199v-819q0 -72 53 -72t117 80v811h198zM426 1167h-162l97 222h254z" />
    <glyph glyph-name="glyph234" unicode="&#xfd;" horiz-adv-x="653" 
d="M16 1067h187l123 -684h8l100 684h199l-225 -1141q-27 -135 -89 -196q-69 -66 -202 -66q-52 0 -80 3v190h37q87 0 123 41q33 38 39 127zM375 1167h-162l97 222h254z" />
    <glyph glyph-name="Abreve" unicode="&#x102;" horiz-adv-x="791" 
d="M12 0l238 1446h291l237 -1446h-229l-45 313h-225l-48 -313h-219zM307 518h170l-76 604h-14zM313 1725q0 -99 84 -99t84 99h131v-13q0 -213 -215 -213t-215 213v13h131z" />
    <glyph glyph-name="abreve" unicode="&#x103;" 
d="M452 472h-176l3 -188q2 -125 86 -125q89 0 88 125zM658 765v-479q0 -137 -81 -224q-84 -90 -220 -90t-209.5 81.5t-73.5 273.5q0 340 378 325l1 107q1 149 -86 149q-49 0 -103 -20l-80 156l160 48q314 6 314 -327zM313 1383q0 -99 84 -99t84 99h131v-13q0 -213 -215 -213
t-215 213v13h131z" />
    <glyph glyph-name="Ccaron" unicode="&#x10c;" horiz-adv-x="1274" 
 />
    <glyph glyph-name="ccaron" unicode="&#x10d;" horiz-adv-x="922" 
 />
    <glyph glyph-name="Dslash" unicode="&#x110;" horiz-adv-x="889" 
d="M346 213h113q116 0 116 152v696q0 172 -178 172h-51v-397h115v-166h-115v-457zM123 0v670h-113v166h113v610h319q361 0 361 -397v-646q0 -199 -75 -295q-85 -108 -277 -108h-328z" />
    <glyph glyph-name="dcroat" unicode="&#x111;" horiz-adv-x="741" 
d="M465 203q-45 -49 -94 -49q-70 0 -70 96v551q0 110 82 110q43 0 82 -43v-665zM666 1446h-201v-140h-46l-81 4l-25 -147h152v-182q-45 55 -94 80h-173q-102 -53 -102 -248v-592q0 -235 181 -235q112 0 188 96v-82h201v1163h50v143h-50v140z" />
    <glyph glyph-name="Itilde" unicode="&#x128;" horiz-adv-x="451" 
d="M115 0v1446h227v-1446h-227zM490 1732v-16q0 -186 -158 -186q-41 0 -107 30.5t-85 30.5q-51 0 -51 -55v-8h-107v16q0 184 158 184q41 0 107 -30.5t85 -30.5q51 0 51 57v8h107z" />
    <glyph glyph-name="itilde" unicode="&#x129;" horiz-adv-x="393" 
d="M96 0v1067h201v-1067h-201zM468 1380v-16q0 -186 -158 -186q-41 0 -107 30.5t-85 30.5q-51 0 -51 -55v-8h-107v16q0 184 158 184q41 0 107 -30.5t85 -30.5q51 0 51 57v8h107z" />
    <glyph glyph-name="Utilde" unicode="&#x168;" horiz-adv-x="885" 
d="M98 1446h228v-1120q0 -138 118 -138q113 0 113 138v1120h227v-1081q0 -180 -79 -283q-88 -113 -263 -113q-344 0 -344 402v1075zM686 1732v-16q0 -186 -158 -186q-41 0 -107 30.5t-85 30.5q-51 0 -51 -55v-8h-107v16q0 184 158 184q41 0 107 -30.5t85 -30.5q51 0 51 57v8
h107z" />
    <glyph glyph-name="utilde" unicode="&#x169;" horiz-adv-x="756" 
d="M657 1067v-1067h-198v117q-113 -133 -230 -133q-139 0 -139 190v893h199v-819q0 -72 53 -72t117 80v811h198zM649 1380v-16q0 -186 -158 -186q-41 0 -107 30.5t-85 30.5q-51 0 -51 -55v-8h-107v16q0 184 158 184q41 0 107 -30.5t85 -30.5q51 0 51 57v8h107z" />
    <glyph glyph-name="Ohorn" unicode="&#x1a0;" horiz-adv-x="862" 
d="M545 319v807q0 150 -115 150t-115 -150v-807q0 -151 115 -151t115 151zM88 1112q0 169 90 265q93 100 260 100q162 0 252 -106q84 -100 84 -265v-741q0 -180 -81 -283q-89 -113 -263 -113q-342 0 -342 402v741zM825 1469l-93 -207h-88l65 229h-47v128h163v-150z" />
    <glyph glyph-name="ohorn" unicode="&#x1a1;" horiz-adv-x="727" 
d="M281 250q0 -92 81 -92q87 0 87 92v581q0 78 -87 78q-81 0 -81 -78v-581zM635 919q16 -46 16 -102v-551q0 -137 -76.5 -215t-212.5 -78q-133 0 -210 83q-76 80 -76 214v553q0 129 84 202q80 69 211 69q122 0 200 -75l28 100h-47v128h163v-150z" />
    <glyph glyph-name="Uhorn" unicode="&#x1af;" horiz-adv-x="885" 
d="M784 1262v-897q0 -180 -79 -283q-88 -113 -263 -113q-344 0 -344 402v1075h228v-1120q0 -138 118 -138q113 0 113 138v1120h227v-4l14 49h-47v128h163v-150l-93 -207h-37z" />
    <glyph glyph-name="uhorn" unicode="&#x1b0;" horiz-adv-x="756" 
d="M657 890v-890h-198v117q-113 -133 -230 -133q-139 0 -139 190v893h199v-819q0 -72 53 -72t117 80v811h174l15 52h-47v128h163v-150l-93 -207h-14z" />
    <glyph glyph-name="uni1EA0" unicode="&#x1ea0;" horiz-adv-x="791" 
d="M12 0l238 1446h291l237 -1446h-229l-45 313h-225l-48 -313h-219zM307 518h170l-76 604h-14zM303 -311v200h184v-200h-184z" />
    <glyph glyph-name="uni1EA1" unicode="&#x1ea1;" 
d="M452 472h-176l3 -188q2 -125 86 -125q89 0 88 125zM658 765v-479q0 -137 -81 -224q-84 -90 -220 -90t-209.5 81.5t-73.5 273.5q0 340 378 325l1 107q1 149 -86 149q-49 0 -103 -20l-80 156l160 48q314 6 314 -327zM279 -311v200h184v-200h-184z" />
    <glyph glyph-name="uni1EA2" unicode="&#x1ea2;" horiz-adv-x="791" 
d="M12 0l238 1446h291l237 -1446h-229l-45 313h-225l-48 -313h-219zM307 518h170l-76 604h-14zM338 1506q7 54 22 95q3 5 32 66q24 47 24 65q0 33 -17 33q-16 0 -45 -68l-97 38q34 120 141 120q62 0 96.5 -33t34.5 -86q0 -40 -27 -93q-46 -82 -47 -87q-8 -20 -14 -50h-103z
" />
    <glyph glyph-name="uni1EA3" unicode="&#x1ea3;" 
d="M452 472h-176l3 -188q2 -125 86 -125q89 0 88 125zM658 765v-479q0 -137 -81 -224q-84 -90 -220 -90t-209.5 81.5t-73.5 273.5q0 340 378 325l1 107q1 149 -86 149q-49 0 -103 -20l-80 156l160 48q314 6 314 -327zM328 1144q7 54 23 95q2 5 32 66q23 47 23 65
q0 33 -17 33q-16 0 -45 -68l-97 38q34 120 141 120q63 0 97 -33t34 -86q0 -40 -27 -93q-45 -82 -46 -87q-9 -20 -14 -50h-104z" />
    <glyph glyph-name="uni1EA4" unicode="&#x1ea4;" horiz-adv-x="791" 
d="M12 0l238 1446h291l237 -1446h-229l-45 313h-225l-48 -313h-219zM307 518h170l-76 604h-14zM305 1519h-162l154 222h196l154 -222h-162l-90 109zM328 1783l99 222h251l-188 -222h-162z" />
    <glyph glyph-name="uni1EA5" unicode="&#x1ea5;" 
d="M452 472h-176l3 -188q2 -125 86 -125q89 0 88 125zM658 765v-479q0 -137 -81 -224q-84 -90 -220 -90t-209.5 81.5t-73.5 273.5q0 340 378 325l1 107q1 149 -86 149q-49 0 -103 -20l-80 156l160 48q314 6 314 -327zM291 1167h-162l154 222h196l154 -222h-162l-90 109z
M315 1432l99 222h251l-188 -222h-162z" />
    <glyph glyph-name="uni1EA6" unicode="&#x1ea6;" horiz-adv-x="791" 
d="M12 0l238 1446h291l237 -1446h-229l-45 313h-225l-48 -313h-219zM307 518h170l-76 604h-14zM305 1519h-162l154 222h196l154 -222h-162l-90 109zM310 1783l-188 222h251l99 -222h-162z" />
    <glyph glyph-name="uni1EA7" unicode="&#x1ea7;" 
d="M452 472h-176l3 -188q2 -125 86 -125q89 0 88 125zM658 765v-479q0 -137 -81 -224q-84 -90 -220 -90t-209.5 81.5t-73.5 273.5q0 340 378 325l1 107q1 149 -86 149q-49 0 -103 -20l-80 156l160 48q314 6 314 -327zM291 1167h-162l154 222h196l154 -222h-162l-90 109z
M297 1432l-188 222h251l99 -222h-162z" />
    <glyph glyph-name="uni1EA8" unicode="&#x1ea8;" horiz-adv-x="791" 
d="M12 0l238 1446h291l237 -1446h-229l-45 313h-225l-48 -313h-219zM307 518h170l-76 604h-14zM305 1519h-162l154 222h196l154 -222h-162l-90 109zM338 1781q7 54 22 95q3 5 32 66q24 47 24 65q0 33 -17 33q-16 0 -45 -68l-97 38q34 120 141 120q62 0 96.5 -33t34.5 -86
q0 -40 -27 -93q-46 -82 -47 -87q-8 -20 -14 -50h-103z" />
    <glyph glyph-name="uni1EA9" unicode="&#x1ea9;" 
d="M452 472h-176l3 -188q2 -125 86 -125q89 0 88 125zM658 765v-479q0 -137 -81 -224q-84 -90 -220 -90t-209.5 81.5t-73.5 273.5q0 340 378 325l1 107q1 149 -86 149q-49 0 -103 -20l-80 156l160 48q314 6 314 -327zM291 1167h-162l154 222h196l154 -222h-162l-90 109z
M338 1428q7 54 23 95q2 5 32 66q23 47 23 65q0 33 -17 33q-16 0 -45 -68l-97 38q34 120 141 120q63 0 97 -33t34 -86q0 -40 -27 -93q-45 -82 -46 -87q-9 -20 -14 -50h-104z" />
    <glyph glyph-name="uni1EAA" unicode="&#x1eaa;" horiz-adv-x="791" 
d="M12 0l238 1446h291l237 -1446h-229l-45 313h-225l-48 -313h-219zM307 518h170l-76 604h-14zM305 1519h-162l154 222h196l154 -222h-162l-90 109zM688 1967v-16q0 -186 -158 -186q-41 0 -107 30.5t-85 30.5q-51 0 -51 -55v-8h-107v16q0 184 158 184q41 0 107 -30.5
t85 -30.5q51 0 51 57v8h107z" />
    <glyph glyph-name="uni1EAB" unicode="&#x1eab;" 
d="M452 472h-176l3 -188q2 -125 86 -125q89 0 88 125zM658 765v-479q0 -137 -81 -224q-84 -90 -220 -90t-209.5 81.5t-73.5 273.5q0 340 378 325l1 107q1 149 -86 149q-49 0 -103 -20l-80 156l160 48q314 6 314 -327zM291 1167h-162l154 222h196l154 -222h-162l-90 109z
M655 1635v-16q0 -186 -158 -186q-41 0 -107 30.5t-85 30.5q-51 0 -51 -55v-8h-107v16q0 184 158 184q41 0 107 -30.5t85 -30.5q51 0 51 57v8h107z" />
    <glyph glyph-name="uni1EAC" unicode="&#x1eac;" horiz-adv-x="791" 
d="M12 0l238 1446h291l237 -1446h-229l-45 313h-225l-48 -313h-219zM307 518h170l-76 604h-14zM305 1519h-162l154 222h196l154 -222h-162l-90 109zM303 -311v200h184v-200h-184z" />
    <glyph glyph-name="uni1EAD" unicode="&#x1ead;" 
d="M452 472h-176l3 -188q2 -125 86 -125q89 0 88 125zM658 765v-479q0 -137 -81 -224q-84 -90 -220 -90t-209.5 81.5t-73.5 273.5q0 340 378 325l1 107q1 149 -86 149q-49 0 -103 -20l-80 156l160 48q314 6 314 -327zM291 1167h-162l154 222h196l154 -222h-162l-90 109z
M279 -311v200h184v-200h-184z" />
    <glyph glyph-name="uni1EAE" unicode="&#x1eae;" horiz-adv-x="791" 
d="M12 0l238 1446h291l237 -1446h-229l-45 313h-225l-48 -313h-219zM307 518h170l-76 604h-14zM313 1725q0 -99 84 -99t84 99h131v-13q0 -213 -215 -213t-215 213v13h131zM318 1773l99 222h251l-188 -222h-162z" />
    <glyph glyph-name="uni1EAF" unicode="&#x1eaf;" 
d="M452 472h-176l3 -188q2 -125 86 -125q89 0 88 125zM658 765v-479q0 -137 -81 -224q-84 -90 -220 -90t-209.5 81.5t-73.5 273.5q0 340 378 325l1 107q1 149 -86 149q-49 0 -103 -20l-80 156l160 48q314 6 314 -327zM313 1383q0 -99 84 -99t84 99h131v-13q0 -213 -215 -213
t-215 213v13h131zM305 1422l99 222h251l-188 -222h-162z" />
    <glyph glyph-name="uni1EB0" unicode="&#x1eb0;" horiz-adv-x="791" 
d="M12 0l238 1446h291l237 -1446h-229l-45 313h-225l-48 -313h-219zM307 518h170l-76 604h-14zM313 1725q0 -99 84 -99t84 99h131v-13q0 -213 -215 -213t-215 213v13h131zM329 1773l-188 222h251l99 -222h-162z" />
    <glyph glyph-name="uni1EB1" unicode="&#x1eb1;" 
d="M452 472h-176l3 -188q2 -125 86 -125q89 0 88 125zM658 765v-479q0 -137 -81 -224q-84 -90 -220 -90t-209.5 81.5t-73.5 273.5q0 340 378 325l1 107q1 149 -86 149q-49 0 -103 -20l-80 156l160 48q314 6 314 -327zM313 1383q0 -99 84 -99t84 99h131v-13q0 -213 -215 -213
t-215 213v13h131zM327 1422l-188 222h251l99 -222h-162z" />
    <glyph glyph-name="uni1EB2" unicode="&#x1eb2;" horiz-adv-x="791" 
d="M12 0l238 1446h291l237 -1446h-229l-45 313h-225l-48 -313h-219zM307 518h170l-76 604h-14zM313 1725q0 -99 84 -99t84 99h131v-13q0 -213 -215 -213t-215 213v13h131zM338 1761q7 54 22 95q3 5 32 66q24 47 24 65q0 33 -17 33q-16 0 -45 -68l-97 38q34 120 141 120
q62 0 96.5 -33t34.5 -86q0 -40 -27 -93q-46 -82 -47 -87q-8 -20 -14 -50h-103z" />
    <glyph glyph-name="uni1EB3" unicode="&#x1eb3;" 
d="M452 472h-176l3 -188q2 -125 86 -125q89 0 88 125zM658 765v-479q0 -137 -81 -224q-84 -90 -220 -90t-209.5 81.5t-73.5 273.5q0 340 378 325l1 107q1 149 -86 149q-49 0 -103 -20l-80 156l160 48q314 6 314 -327zM313 1383q0 -99 84 -99t84 99h131v-13q0 -213 -215 -213
t-215 213v13h131zM348 1398q7 54 23 95q2 5 32 66q23 47 23 65q0 33 -17 33q-16 0 -45 -68l-97 38q34 120 141 120q63 0 97 -33t34 -86q0 -40 -27 -93q-45 -82 -46 -87q-9 -20 -14 -50h-104z" />
    <glyph glyph-name="uni1EB4" unicode="&#x1eb4;" horiz-adv-x="791" 
d="M12 0l238 1446h291l237 -1446h-229l-45 313h-225l-48 -313h-219zM307 518h170l-76 604h-14zM313 1725q0 -99 84 -99t84 99h131v-13q0 -213 -215 -213t-215 213v13h131zM688 1967v-16q0 -186 -158 -186q-41 0 -107 30.5t-85 30.5q-51 0 -51 -55v-8h-107v16q0 184 158 184
q41 0 107 -30.5t85 -30.5q51 0 51 57v8h107z" />
    <glyph glyph-name="uni1EB5" unicode="&#x1eb5;" 
d="M452 472h-176l3 -188q2 -125 86 -125q89 0 88 125zM658 765v-479q0 -137 -81 -224q-84 -90 -220 -90t-209.5 81.5t-73.5 273.5q0 340 378 325l1 107q1 149 -86 149q-49 0 -103 -20l-80 156l160 48q314 6 314 -327zM313 1383q0 -99 84 -99t84 99h131v-13q0 -213 -215 -213
t-215 213v13h131zM675 1635v-16q0 -186 -158 -186q-41 0 -107 30.5t-85 30.5q-51 0 -51 -55v-8h-107v16q0 184 158 184q41 0 107 -30.5t85 -30.5q51 0 51 57v8h107z" />
    <glyph glyph-name="uni1EB6" unicode="&#x1eb6;" horiz-adv-x="791" 
d="M12 0l238 1446h291l237 -1446h-229l-45 313h-225l-48 -313h-219zM307 518h170l-76 604h-14zM313 1725q0 -99 84 -99t84 99h131v-13q0 -213 -215 -213t-215 213v13h131zM303 -311v200h184v-200h-184z" />
    <glyph glyph-name="uni1EB7" unicode="&#x1eb7;" 
d="M452 472h-176l3 -188q2 -125 86 -125q89 0 88 125zM658 765v-479q0 -137 -81 -224q-84 -90 -220 -90t-209.5 81.5t-73.5 273.5q0 340 378 325l1 107q1 149 -86 149q-49 0 -103 -20l-80 156l160 48q314 6 314 -327zM313 1383q0 -99 84 -99t84 99h131v-13q0 -213 -215 -213
t-215 213v13h131zM279 -311v200h184v-200h-184z" />
    <glyph glyph-name="uni1EB8" unicode="&#x1eb8;" horiz-adv-x="754" 
d="M115 0v1446h581v-209h-358v-379h258v-209h-258v-432h358v-217h-581zM303 -311v200h184v-200h-184z" />
    <glyph glyph-name="uni1EB9" unicode="&#x1eb9;" 
d="M250 596h176l-3 188q-2 125 -86 125q-89 0 -88 -125zM44 303v479q0 137 82.5 225.5t218.5 88.5t209.5 -81.5t73.5 -273.5q0 -340 -378 -325l-1 -107q-1 -149 86 -149q49 0 103 20l80 -156l-160 -48q-314 -6 -314 327zM240 -311v200h184v-200h-184z" />
    <glyph glyph-name="uni1EBA" unicode="&#x1eba;" horiz-adv-x="754" 
d="M115 0v1446h581v-209h-358v-379h258v-209h-258v-432h358v-217h-581zM338 1506q7 54 22 95q3 5 32 66q24 47 24 65q0 33 -17 33q-16 0 -45 -68l-97 38q34 120 141 120q62 0 96.5 -33t34.5 -86q0 -40 -27 -93q-46 -82 -47 -87q-8 -20 -14 -50h-103z" />
    <glyph glyph-name="uni1EBB" unicode="&#x1ebb;" 
d="M250 596h176l-3 188q-2 125 -86 125q-89 0 -88 -125zM44 303v479q0 137 82.5 225.5t218.5 88.5t209.5 -81.5t73.5 -273.5q0 -340 -378 -325l-1 -107q-1 -149 86 -149q49 0 103 20l80 -156l-160 -48q-314 -6 -314 327zM269 1144q7 54 23 95q2 5 32 66q23 47 23 65
q0 33 -17 33q-16 0 -45 -68l-97 38q34 120 141 120q63 0 97 -33t34 -86q0 -40 -27 -93q-45 -82 -46 -87q-9 -20 -14 -50h-104z" />
    <glyph glyph-name="uni1EBC" unicode="&#x1ebc;" horiz-adv-x="754" 
d="M115 0v1446h581v-209h-358v-379h258v-209h-258v-432h358v-217h-581zM689 1732v-16q0 -186 -158 -186q-41 0 -107 30.5t-85 30.5q-51 0 -51 -55v-8h-107v16q0 184 158 184q41 0 107 -30.5t85 -30.5q51 0 51 57v8h107z" />
    <glyph glyph-name="uni1EBD" unicode="&#x1ebd;" 
d="M250 596h176l-3 188q-2 125 -86 125q-89 0 -88 -125zM44 303v479q0 137 82.5 225.5t218.5 88.5t209.5 -81.5t73.5 -273.5q0 -340 -378 -325l-1 -107q-1 -149 86 -149q49 0 103 20l80 -156l-160 -48q-314 -6 -314 327zM615 1380v-16q0 -186 -158 -186q-41 0 -107 30.5
t-85 30.5q-51 0 -51 -55v-8h-107v16q0 184 158 184q41 0 107 -30.5t85 -30.5q51 0 51 57v8h107z" />
    <glyph glyph-name="uni1EBE" unicode="&#x1ebe;" horiz-adv-x="754" 
d="M115 0v1446h581v-209h-358v-379h258v-209h-258v-432h358v-217h-581zM320 1519h-162l154 222h196l154 -222h-162l-90 109zM328 1783l99 222h251l-188 -222h-162z" />
    <glyph glyph-name="uni1EBF" unicode="&#x1ebf;" 
d="M250 596h176l-3 188q-2 125 -86 125q-89 0 -88 -125zM44 303v479q0 137 82.5 225.5t218.5 88.5t209.5 -81.5t73.5 -273.5q0 -340 -378 -325l-1 -107q-1 -149 86 -149q49 0 103 20l80 -156l-160 -48q-314 -6 -314 327zM248 1167h-162l154 222h196l154 -222h-162l-90 109z
M276 1432l99 222h251l-188 -222h-162z" />
    <glyph glyph-name="uni1EC0" unicode="&#x1ec0;" horiz-adv-x="754" 
d="M115 0v1446h581v-209h-358v-379h258v-209h-258v-432h358v-217h-581zM320 1519h-162l154 222h196l154 -222h-162l-90 109zM310 1783l-188 222h251l99 -222h-162z" />
    <glyph glyph-name="uni1EC1" unicode="&#x1ec1;" 
d="M250 596h176l-3 188q-2 125 -86 125q-89 0 -88 -125zM44 303v479q0 137 82.5 225.5t218.5 88.5t209.5 -81.5t73.5 -273.5q0 -340 -378 -325l-1 -107q-1 -149 86 -149q49 0 103 20l80 -156l-160 -48q-314 -6 -314 327zM246 1167h-162l154 222h196l154 -222h-162l-90 109z
M256 1432l-188 222h251l99 -222h-162z" />
    <glyph glyph-name="uni1EC2" unicode="&#x1ec2;" horiz-adv-x="754" 
d="M115 0v1446h581v-209h-358v-379h258v-209h-258v-432h358v-217h-581zM320 1519h-162l154 222h196l154 -222h-162l-90 109zM367 1781q7 54 22 95q3 5 32 66q24 47 24 65q0 33 -17 33q-16 0 -45 -68l-97 38q34 120 141 120q62 0 96.5 -33t34.5 -86q0 -40 -27 -93
q-46 -82 -47 -87q-8 -20 -14 -50h-103z" />
    <glyph glyph-name="uni1EC3" unicode="&#x1ec3;" 
d="M251 596h176l-3 188q-2 125 -86 125q-89 0 -88 -125zM45 303v479q0 137 82.5 225.5t218.5 88.5t209.5 -81.5t73.5 -273.5q0 -340 -378 -325l-1 -107q-1 -149 86 -149q49 0 103 20l80 -156l-160 -48q-314 -6 -314 327zM247 1167h-162l154 222h196l154 -222h-162l-90 109z
M295 1428q7 54 23 95q2 5 32 66q23 47 23 65q0 33 -17 33q-16 0 -45 -68l-97 38q34 120 141 120q63 0 97 -33t34 -86q0 -40 -27 -93q-45 -82 -46 -87q-9 -20 -14 -50h-104z" />
    <glyph glyph-name="uni1EC4" unicode="&#x1ec4;" horiz-adv-x="754" 
d="M115 0v1446h581v-209h-358v-379h258v-209h-258v-432h358v-217h-581zM320 1519h-162l154 222h196l154 -222h-162l-90 109zM688 1967v-16q0 -186 -158 -186q-41 0 -107 30.5t-85 30.5q-51 0 -51 -55v-8h-107v16q0 184 158 184q41 0 107 -30.5t85 -30.5q51 0 51 57v8h107z
" />
    <glyph glyph-name="uni1EC5" unicode="&#x1ec5;" 
d="M251 596h176l-3 188q-2 125 -86 125q-89 0 -88 -125zM45 303v479q0 137 82.5 225.5t218.5 88.5t209.5 -81.5t73.5 -273.5q0 -340 -378 -325l-1 -107q-1 -149 86 -149q49 0 103 20l80 -156l-160 -48q-314 -6 -314 327zM247 1167h-162l154 222h196l154 -222h-162l-90 109z
M617 1635v-16q0 -186 -158 -186q-41 0 -107 30.5t-85 30.5q-51 0 -51 -55v-8h-107v16q0 184 158 184q41 0 107 -30.5t85 -30.5q51 0 51 57v8h107z" />
    <glyph glyph-name="uni1EC6" unicode="&#x1ec6;" horiz-adv-x="754" 
d="M115 0v1446h581v-209h-358v-379h258v-209h-258v-432h358v-217h-581zM320 1519h-162l154 222h196l154 -222h-162l-90 109zM303 -311v200h184v-200h-184z" />
    <glyph glyph-name="uni1EC7" unicode="&#x1ec7;" 
d="M247 596h176l-3 188q-2 125 -86 125q-89 0 -88 -125zM45 303v479q0 137 82.5 225.5t218.5 88.5t209.5 -81.5t73.5 -273.5q0 -340 -378 -325l-1 -107q-1 -149 86 -149q49 0 103 20l80 -156l-160 -48q-314 -6 -314 327zM247 1167h-162l154 222h196l154 -222h-162l-90 109z
M242 -311v200h184v-200h-184z" />
    <glyph glyph-name="uni1EC8" unicode="&#x1ec8;" horiz-adv-x="451" 
d="M115 0v1446h227v-1446h-227zM180 1535q7 54 23 95q2 5 32 66q23 47 23 65q0 33 -17 33q-16 0 -45 -68l-97 38q34 120 141 120q63 0 97 -33t34 -86q0 -40 -27 -93q-45 -82 -46 -87q-8 -20 -14 -50h-104z" />
    <glyph glyph-name="uni1EC9" unicode="&#x1ec9;" horiz-adv-x="393" 
d="M96 0v1067h201v-1067h-201zM141 1144q7 54 23 95q2 5 32 66q23 47 23 65q0 33 -17 33q-16 0 -45 -68l-97 38q34 120 141 120q63 0 97 -33t34 -86q0 -40 -27 -93q-45 -82 -46 -87q-8 -20 -14 -50h-104z" />
    <glyph glyph-name="uni1ECA" unicode="&#x1eca;" horiz-adv-x="451" 
d="M115 0v1446h227v-1446h-227zM133 -311v200h184v-200h-184z" />
    <glyph glyph-name="uni1ECB" unicode="&#x1ecb;" horiz-adv-x="393" 
d="M97 1247v199h201v-199h-201zM97 0v1067h201v-1067h-201zM95 -311v200h184v-200h-184z" />
    <glyph glyph-name="uni1ECC" unicode="&#x1ecc;" horiz-adv-x="862" 
d="M545 319v807q0 150 -115 150t-115 -150v-807q0 -151 115 -151t115 151zM88 1112q0 169 90 265q93 100 260 100q162 0 252 -106q84 -100 84 -265v-741q0 -180 -81 -283q-89 -113 -263 -113q-342 0 -342 402v741zM339 -311v200h184v-200h-184z" />
    <glyph glyph-name="uni1ECD" unicode="&#x1ecd;" horiz-adv-x="727" 
d="M281 250q0 -92 81 -92q87 0 87 92v581q0 78 -87 78q-81 0 -81 -78v-581zM76 823q0 129 84 202q80 69 211 69q123 0 201.5 -77t78.5 -200v-551q0 -137 -76.5 -215t-212.5 -78q-133 0 -210 83q-76 80 -76 214v553zM262 -311v200h184v-200h-184z" />
    <glyph glyph-name="uni1ECE" unicode="&#x1ece;" horiz-adv-x="862" 
d="M545 319v807q0 150 -115 150t-115 -150v-807q0 -151 115 -151t115 151zM88 1112q0 169 90 265q93 100 260 100q162 0 252 -106q84 -100 84 -265v-741q0 -180 -81 -283q-89 -113 -263 -113q-342 0 -342 402v741zM376 1535q7 54 23 95q2 5 32 66q23 47 23 65q0 33 -17 33
q-16 0 -45 -68l-97 38q34 120 141 120q63 0 97 -33t34 -86q0 -40 -27 -93q-45 -82 -46 -87q-9 -20 -14 -50h-104z" />
    <glyph glyph-name="uni1ECF" unicode="&#x1ecf;" horiz-adv-x="727" 
d="M281 250q0 -92 81 -92q87 0 87 92v581q0 78 -87 78q-81 0 -81 -78v-581zM76 823q0 129 84 202q80 69 211 69q123 0 201.5 -77t78.5 -200v-551q0 -137 -76.5 -215t-212.5 -78q-133 0 -210 83q-76 80 -76 214v553zM308 1144q7 54 23 95q2 5 32 66q23 47 23 65q0 33 -17 33
q-16 0 -45 -68l-97 38q34 120 141 120q63 0 97 -33t34 -86q0 -40 -27 -93q-45 -82 -46 -87q-9 -20 -14 -50h-104z" />
    <glyph glyph-name="uni1ED0" unicode="&#x1ed0;" horiz-adv-x="862" 
d="M545 319v807q0 150 -115 150t-115 -150v-807q0 -151 115 -151t115 151zM88 1112q0 169 90 265q93 100 260 100q162 0 252 -106q84 -100 84 -265v-741q0 -180 -81 -283q-89 -113 -263 -113q-342 0 -342 402v741zM342 1519h-162l154 222h196l154 -222h-162l-90 109z
M366 1783l99 222h251l-188 -222h-162z" />
    <glyph glyph-name="uni1ED1" unicode="&#x1ed1;" horiz-adv-x="727" 
d="M281 250q0 -92 81 -92q87 0 87 92v581q0 78 -87 78q-81 0 -81 -78v-581zM76 823q0 129 84 202q80 69 211 69q123 0 201.5 -77t78.5 -200v-551q0 -137 -76.5 -215t-212.5 -78q-133 0 -210 83q-76 80 -76 214v553zM275 1167h-162l154 222h196l154 -222h-162l-90 109z
M296 1432l99 222h251l-188 -222h-162z" />
    <glyph glyph-name="uni1ED2" unicode="&#x1ed2;" horiz-adv-x="862" 
d="M545 319v807q0 150 -115 150t-115 -150v-807q0 -151 115 -151t115 151zM88 1112q0 169 90 265q93 100 260 100q162 0 252 -106q84 -100 84 -265v-741q0 -180 -81 -283q-89 -113 -263 -113q-342 0 -342 402v741zM342 1519h-162l154 222h196l154 -222h-162l-90 109z
M349 1783l-188 222h251l99 -222h-162z" />
    <glyph glyph-name="uni1ED3" unicode="&#x1ed3;" horiz-adv-x="727" 
d="M281 250q0 -92 81 -92q87 0 87 92v581q0 78 -87 78q-81 0 -81 -78v-581zM76 823q0 129 84 202q80 69 211 69q123 0 201.5 -77t78.5 -200v-551q0 -137 -76.5 -215t-212.5 -78q-133 0 -210 83q-76 80 -76 214v553zM275 1167h-162l154 222h196l154 -222h-162l-90 109z
M297 1432l-188 222h251l99 -222h-162z" />
    <glyph glyph-name="uni1ED4" unicode="&#x1ed4;" horiz-adv-x="862" 
d="M545 319v807q0 150 -115 150t-115 -150v-807q0 -151 115 -151t115 151zM88 1112q0 169 90 265q93 100 260 100q162 0 252 -106q84 -100 84 -265v-741q0 -180 -81 -283q-89 -113 -263 -113q-342 0 -342 402v741zM342 1519h-162l154 222h196l154 -222h-162l-90 109z
M367 1781q7 54 22 95q3 5 32 66q24 47 24 65q0 33 -17 33q-16 0 -45 -68l-97 38q34 120 141 120q62 0 96.5 -33t34.5 -86q0 -40 -27 -93q-46 -82 -47 -87q-8 -20 -14 -50h-103z" />
    <glyph glyph-name="uni1ED5" unicode="&#x1ed5;" horiz-adv-x="727" 
d="M281 250q0 -92 81 -92q87 0 87 92v581q0 78 -87 78q-81 0 -81 -78v-581zM76 823q0 129 84 202q80 69 211 69q123 0 201.5 -77t78.5 -200v-551q0 -137 -76.5 -215t-212.5 -78q-133 0 -210 83q-76 80 -76 214v553zM275 1167h-162l154 222h196l154 -222h-162l-90 109z
M319 1428q7 54 23 95q2 5 32 66q23 47 23 65q0 33 -17 33q-16 0 -45 -68l-97 38q34 120 141 120q63 0 97 -33t34 -86q0 -40 -27 -93q-45 -82 -46 -87q-9 -20 -14 -50h-104z" />
    <glyph glyph-name="uni1ED6" unicode="&#x1ed6;" horiz-adv-x="862" 
d="M545 319v807q0 150 -115 150t-115 -150v-807q0 -151 115 -151t115 151zM88 1112q0 169 90 265q93 100 260 100q162 0 252 -106q84 -100 84 -265v-741q0 -180 -81 -283q-89 -113 -263 -113q-342 0 -342 402v741zM342 1519h-162l154 222h196l154 -222h-162l-90 109z
M727 1967v-16q0 -186 -158 -186q-41 0 -107 30.5t-85 30.5q-51 0 -51 -55v-8h-107v16q0 184 158 184q41 0 107 -30.5t85 -30.5q51 0 51 57v8h107z" />
    <glyph glyph-name="uni1ED7" unicode="&#x1ed7;" horiz-adv-x="727" 
d="M281 250q0 -92 81 -92q87 0 87 92v581q0 78 -87 78q-81 0 -81 -78v-581zM76 823q0 129 84 202q80 69 211 69q123 0 201.5 -77t78.5 -200v-551q0 -137 -76.5 -215t-212.5 -78q-133 0 -210 83q-76 80 -76 214v553zM275 1167h-162l154 222h196l154 -222h-162l-90 109z
M655 1635v-16q0 -186 -158 -186q-41 0 -107 30.5t-85 30.5q-51 0 -51 -55v-8h-107v16q0 184 158 184q41 0 107 -30.5t85 -30.5q51 0 51 57v8h107z" />
    <glyph glyph-name="uni1ED8" unicode="&#x1ed8;" horiz-adv-x="862" 
d="M545 319v807q0 150 -115 150t-115 -150v-807q0 -151 115 -151t115 151zM88 1112q0 169 90 265q93 100 260 100q162 0 252 -106q84 -100 84 -265v-741q0 -180 -81 -283q-89 -113 -263 -113q-342 0 -342 402v741zM342 1519h-162l154 222h196l154 -222h-162l-90 109z
M339 -311v200h184v-200h-184z" />
    <glyph glyph-name="uni1ED9" unicode="&#x1ed9;" horiz-adv-x="727" 
d="M281 250q0 -92 81 -92q87 0 87 92v581q0 78 -87 78q-81 0 -81 -78v-581zM76 823q0 129 84 202q80 69 211 69q123 0 201.5 -77t78.5 -200v-551q0 -137 -76.5 -215t-212.5 -78q-133 0 -210 83q-76 80 -76 214v553zM275 1167h-162l154 222h196l154 -222h-162l-90 109z
M262 -311v200h184v-200h-184z" />
    <glyph glyph-name="uni1EDA" unicode="&#x1eda;" horiz-adv-x="862" 
d="M545 319v807q0 150 -115 150t-115 -150v-807q0 -151 115 -151t115 151zM479 1519h-162l97 222h254zM742 1285q32 -77 32 -179v-741q0 -180 -81 -283q-89 -113 -263 -113q-342 0 -342 402v741q0 169 90 265q93 100 260 100q152 0 241 -93l30 107h-47v128h163v-150z" />
    <glyph glyph-name="uni1EDB" unicode="&#x1edb;" horiz-adv-x="727" 
d="M281 250q0 -92 81 -92q87 0 87 92v581q0 78 -87 78q-81 0 -81 -78v-581zM412 1167h-162l97 222h254zM635 919q16 -46 16 -102v-551q0 -137 -76.5 -215t-212.5 -78q-133 0 -210 83q-76 80 -76 214v553q0 129 84 202q80 69 211 69q122 0 200 -75l28 100h-47v128h163v-150z
" />
    <glyph glyph-name="uni1EDC" unicode="&#x1edc;" horiz-adv-x="862" 
d="M545 319v807q0 150 -115 150t-115 -150v-807q0 -151 115 -151t115 151zM387 1519l-188 222h251l99 -222h-162zM742 1285q32 -77 32 -179v-741q0 -180 -81 -283q-89 -113 -263 -113q-342 0 -342 402v741q0 169 90 265q93 100 260 100q152 0 241 -93l30 107h-47v128h163
v-150z" />
    <glyph glyph-name="uni1EDD" unicode="&#x1edd;" horiz-adv-x="727" 
d="M281 250q0 -92 81 -92q87 0 87 92v581q0 78 -87 78q-81 0 -81 -78v-581zM320 1167l-188 222h251l99 -222h-162zM635 919q16 -46 16 -102v-551q0 -137 -76.5 -215t-212.5 -78q-133 0 -210 83q-76 80 -76 214v553q0 129 84 202q80 69 211 69q122 0 200 -75l28 100h-47v128
h163v-150z" />
    <glyph glyph-name="uni1EDE" unicode="&#x1ede;" horiz-adv-x="862" 
d="M545 319v807q0 150 -115 150t-115 -150v-807q0 -151 115 -151t115 151zM376 1535q7 54 23 95q2 5 32 66q23 47 23 65q0 33 -17 33q-16 0 -45 -68l-97 38q34 120 141 120q63 0 97 -33t34 -86q0 -40 -27 -93q-45 -82 -46 -87q-9 -20 -14 -50h-104zM742 1285q32 -77 32 -179
v-741q0 -180 -81 -283q-89 -113 -263 -113q-342 0 -342 402v741q0 169 90 265q93 100 260 100q152 0 241 -93l30 107h-47v128h163v-150z" />
    <glyph glyph-name="uni1EDF" unicode="&#x1edf;" horiz-adv-x="727" 
d="M281 250q0 -92 81 -92q87 0 87 92v581q0 78 -87 78q-81 0 -81 -78v-581zM308 1144q7 54 23 95q2 5 32 66q23 47 23 65q0 33 -17 33q-16 0 -45 -68l-97 38q34 120 141 120q63 0 97 -33t34 -86q0 -40 -27 -93q-45 -82 -46 -87q-9 -20 -14 -50h-104zM635 919q16 -46 16 -102
v-551q0 -137 -76.5 -215t-212.5 -78q-133 0 -210 83q-76 80 -76 214v553q0 129 84 202q80 69 211 69q122 0 200 -75l28 100h-47v128h163v-150z" />
    <glyph glyph-name="uni1EE0" unicode="&#x1ee0;" horiz-adv-x="862" 
d="M545 319v807q0 150 -115 150t-115 -150v-807q0 -151 115 -151t115 151zM705 1790v-16q0 -186 -158 -186q-41 0 -107 30.5t-85 30.5q-51 0 -51 -55v-8h-107v16q0 184 158 184q41 0 107 -30.5t85 -30.5q51 0 51 57v8h107zM742 1285q32 -77 32 -179v-741q0 -180 -81 -283
q-89 -113 -263 -113q-342 0 -342 402v741q0 169 90 265q93 100 260 100q152 0 241 -93l30 107h-47v128h163v-150z" />
    <glyph glyph-name="uni1EE1" unicode="&#x1ee1;" horiz-adv-x="727" 
d="M281 250q0 -92 81 -92q87 0 87 92v581q0 78 -87 78q-81 0 -81 -78v-581zM619 1449v-16q0 -186 -158 -186q-41 0 -107 30.5t-85 30.5q-51 0 -51 -55v-8h-107v16q0 184 158 184q41 0 107 -30.5t85 -30.5q51 0 51 57v8h107zM635 919q16 -46 16 -102v-551q0 -137 -76.5 -215
t-212.5 -78q-133 0 -210 83q-76 80 -76 214v553q0 129 84 202q80 69 211 69q122 0 200 -75l28 100h-47v128h163v-150z" />
    <glyph glyph-name="uni1EE2" unicode="&#x1ee2;" horiz-adv-x="862" 
d="M545 319v807q0 150 -115 150t-115 -150v-807q0 -151 115 -151t115 151zM339 -311v200h184v-200h-184zM742 1285q32 -77 32 -179v-741q0 -180 -81 -283q-89 -113 -263 -113q-342 0 -342 402v741q0 169 90 265q93 100 260 100q152 0 241 -93l30 107h-47v128h163v-150z" />
    <glyph glyph-name="uni1EE3" unicode="&#x1ee3;" horiz-adv-x="727" 
d="M281 250q0 -92 81 -92q87 0 87 92v581q0 78 -87 78q-81 0 -81 -78v-581zM262 -311v200h184v-200h-184zM635 919q16 -46 16 -102v-551q0 -137 -76.5 -215t-212.5 -78q-133 0 -210 83q-76 80 -76 214v553q0 129 84 202q80 69 211 69q122 0 200 -75l28 100h-47v128h163v-150
z" />
    <glyph glyph-name="uni1EE4" unicode="&#x1ee4;" horiz-adv-x="885" 
d="M98 1446h228v-1120q0 -138 118 -138q113 0 113 138v1120h227v-1081q0 -180 -79 -283q-88 -113 -263 -113q-344 0 -344 402v1075zM339 -311v200h184v-200h-184z" />
    <glyph glyph-name="uni1EE5" unicode="&#x1ee5;" horiz-adv-x="756" 
d="M657 1067v-1067h-198v117q-113 -133 -230 -133q-139 0 -139 190v893h199v-819q0 -72 53 -72t117 80v811h198zM282 -311v200h184v-200h-184z" />
    <glyph glyph-name="uni1EE6" unicode="&#x1ee6;" horiz-adv-x="885" 
d="M98 1446h228v-1120q0 -138 118 -138q113 0 113 138v1120h227v-1081q0 -180 -79 -283q-88 -113 -263 -113q-344 0 -344 402v1075zM396 1535q7 54 23 95q2 5 32 66q23 47 23 65q0 33 -17 33q-16 0 -45 -68l-97 38q34 120 141 120q63 0 97 -33t34 -86q0 -40 -27 -93
q-45 -82 -46 -87q-9 -20 -14 -50h-104z" />
    <glyph glyph-name="uni1EE7" unicode="&#x1ee7;" horiz-adv-x="756" 
d="M657 1067v-1067h-198v117q-113 -133 -230 -133q-139 0 -139 190v893h199v-819q0 -72 53 -72t117 80v811h198zM328 1144q7 54 23 95q2 5 32 66q23 47 23 65q0 33 -17 33q-16 0 -45 -68l-97 38q34 120 141 120q63 0 97 -33t34 -86q0 -40 -27 -93q-45 -82 -46 -87
q-9 -20 -14 -50h-104z" />
    <glyph glyph-name="uni1EE8" unicode="&#x1ee8;" horiz-adv-x="885" 
d="M489 1519h-162l97 222h254zM784 1262v-897q0 -180 -79 -283q-88 -113 -263 -113q-344 0 -344 402v1075h228v-1120q0 -138 118 -138q113 0 113 138v1120h227v-4l14 49h-47v128h163v-150l-93 -207h-37z" />
    <glyph glyph-name="uni1EE9" unicode="&#x1ee9;" horiz-adv-x="756" 
d="M426 1167h-162l97 222h254zM657 890v-890h-198v117q-113 -133 -230 -133q-139 0 -139 190v893h199v-819q0 -72 53 -72t117 80v811h174l15 52h-47v128h163v-150l-93 -207h-14z" />
    <glyph glyph-name="uni1EEA" unicode="&#x1eea;" horiz-adv-x="885" 
d="M397 1519l-188 222h251l99 -222h-162zM784 1262v-897q0 -180 -79 -283q-88 -113 -263 -113q-344 0 -344 402v1075h228v-1120q0 -138 118 -138q113 0 113 138v1120h227v-4l14 49h-47v128h163v-150l-93 -207h-37z" />
    <glyph glyph-name="uni1EEB" unicode="&#x1eeb;" horiz-adv-x="756" 
d="M334 1167l-188 222h251l99 -222h-162zM657 890v-890h-198v117q-113 -133 -230 -133q-139 0 -139 190v893h199v-819q0 -72 53 -72t117 80v811h174l15 52h-47v128h163v-150l-93 -207h-14z" />
    <glyph glyph-name="uni1EEC" unicode="&#x1eec;" horiz-adv-x="885" 
d="M396 1535q7 54 23 95q2 5 32 66q23 47 23 65q0 33 -17 33q-16 0 -45 -68l-97 38q34 120 141 120q63 0 97 -33t34 -86q0 -40 -27 -93q-45 -82 -46 -87q-9 -20 -14 -50h-104zM784 1262v-897q0 -180 -79 -283q-88 -113 -263 -113q-344 0 -344 402v1075h228v-1120
q0 -138 118 -138q113 0 113 138v1120h227v-4l14 49h-47v128h163v-150l-93 -207h-37z" />
    <glyph glyph-name="uni1EED" unicode="&#x1eed;" horiz-adv-x="756" 
d="M328 1144q7 54 23 95q2 5 32 66q23 47 23 65q0 33 -17 33q-16 0 -45 -68l-97 38q34 120 141 120q63 0 97 -33t34 -86q0 -40 -27 -93q-45 -82 -46 -87q-9 -20 -14 -50h-104zM657 890v-890h-198v117q-113 -133 -230 -133q-139 0 -139 190v893h199v-819q0 -72 53 -72t117 80
v811h174l15 52h-47v128h163v-150l-93 -207h-14z" />
    <glyph glyph-name="uni1EEE" unicode="&#x1eee;" horiz-adv-x="885" 
d="M686 1732v-16q0 -186 -158 -186q-41 0 -107 30.5t-85 30.5q-51 0 -51 -55v-8h-107v16q0 184 158 184q41 0 107 -30.5t85 -30.5q51 0 51 57v8h107zM784 1262v-897q0 -180 -79 -283q-88 -113 -263 -113q-344 0 -344 402v1075h228v-1120q0 -138 118 -138q113 0 113 138v1120
h227v-4l14 49h-47v128h163v-150l-93 -207h-37z" />
    <glyph glyph-name="uni1EEF" unicode="&#x1eef;" horiz-adv-x="756" 
d="M649 1448v-16q0 -186 -158 -186q-41 0 -107 30.5t-85 30.5q-51 0 -51 -55v-8h-107v16q0 184 158 184q41 0 107 -30.5t85 -30.5q51 0 51 57v8h107zM657 890v-890h-198v117q-113 -133 -230 -133q-139 0 -139 190v893h199v-819q0 -72 53 -72t117 80v811h174l15 52h-47v128
h163v-150l-93 -207h-14z" />
    <glyph glyph-name="uni1EF0" unicode="&#x1ef0;" horiz-adv-x="885" 
d="M339 -311v200h184v-200h-184zM784 1262v-897q0 -180 -79 -283q-88 -113 -263 -113q-344 0 -344 402v1075h228v-1120q0 -138 118 -138q113 0 113 138v1120h227v-4l14 49h-47v128h163v-150l-93 -207h-37z" />
    <glyph glyph-name="uni1EF1" unicode="&#x1ef1;" horiz-adv-x="756" 
d="M282 -311v200h184v-200h-184zM657 890v-890h-198v117q-113 -133 -230 -133q-139 0 -139 190v893h199v-819q0 -72 53 -72t117 80v811h174l15 52h-47v128h163v-150l-93 -207h-14z" />
    <glyph glyph-name="Ygrave" unicode="&#x1ef2;" horiz-adv-x="702" 
d="M-25 1446h226l145 -578h14l138 578h227l-260 -846v-600h-223v573zM81 1741h254l97 -222h-162z" />
    <glyph glyph-name="ygrave" unicode="&#x1ef3;" horiz-adv-x="653" 
d="M16 1067h187l123 -684h8l100 684h199l-225 -1141q-27 -135 -89 -196q-69 -66 -202 -66q-52 0 -80 3v190h37q87 0 123 41q33 38 39 127zM47 1389h254l97 -222h-162z" />
    <glyph glyph-name="uni1EF4" unicode="&#x1ef4;" horiz-adv-x="702" 
d="M-25 1446h226l145 -578h14l138 578h227l-260 -846v-600h-223v573zM250 -311v200h184v-200h-184z" />
    <glyph glyph-name="uni1EF5" unicode="&#x1ef5;" horiz-adv-x="653" 
d="M16 1067h187l123 -684h8l100 684h199l-225 -1141q-27 -135 -89 -196q-69 -66 -202 -66q-52 0 -80 3v190h37q87 0 123 41q33 38 39 127zM429 -311v200h184v-200h-184z" />
    <glyph glyph-name="uni1EF6" unicode="&#x1ef6;" horiz-adv-x="702" 
d="M-25 1446h226l145 -578h14l138 578h227l-260 -846v-600h-223v573zM308 1516q7 54 23 95q2 5 32 66q23 47 23 65q0 33 -17 33q-16 0 -45 -68l-97 38q34 120 141 120q63 0 97 -33t34 -86q0 -40 -27 -93q-45 -82 -46 -87q-9 -20 -14 -50h-104z" />
    <glyph glyph-name="uni1EF7" unicode="&#x1ef7;" horiz-adv-x="653" 
d="M16 1067h187l123 -684h8l100 684h199l-225 -1141q-27 -135 -89 -196q-69 -66 -202 -66q-52 0 -80 3v190h37q87 0 123 41q33 38 39 127zM269 1105q7 54 23 95q2 5 32 66q23 47 23 65q0 33 -17 33q-16 0 -45 -68l-97 38q34 120 141 120q63 0 97 -33t34 -86q0 -40 -27 -93
q-45 -82 -46 -87q-9 -20 -14 -50h-104z" />
    <glyph glyph-name="uni1EF8" unicode="&#x1ef8;" horiz-adv-x="702" 
d="M-25 1446h226l145 -578h14l138 578h227l-260 -846v-600h-223v573zM627 1732v-16q0 -186 -158 -186q-41 0 -107 30.5t-85 30.5q-51 0 -51 -55v-8h-107v16q0 184 158 184q41 0 107 -30.5t85 -30.5q51 0 51 57v8h107z" />
    <glyph glyph-name="uni1EF9" unicode="&#x1ef9;" horiz-adv-x="653" 
d="M16 1067h187l123 -684h8l100 684h199l-225 -1141q-27 -135 -89 -196q-69 -66 -202 -66q-52 0 -80 3v190h37q87 0 123 41q33 38 39 127zM600 1350v-16q0 -186 -158 -186q-41 0 -107 30.5t-85 30.5q-51 0 -51 -55v-8h-107v16q0 184 158 184q41 0 107 -30.5t85 -30.5
q51 0 51 57v8h107z" />
    <glyph glyph-name="quoteleft" unicode="&#x2018;" horiz-adv-x="440" 
d="M328 1190v-227h-213v227l112 256h101l-76 -256h76z" />
    <glyph glyph-name="quoteright" unicode="&#x2019;" horiz-adv-x="440" 
d="M115 1219v227h213v-227l-115 -256h-98l73 256h-73z" />
    <glyph glyph-name="quotedblleft" unicode="&#x201c;" horiz-adv-x="739" 
d="M627 1190v-227h-215v227l114 256h101l-76 -256h76zM328 1190v-227h-213v227l112 256h101l-76 -256h76z" />
    <glyph glyph-name="quotedblright" unicode="&#x201d;" horiz-adv-x="739" 
d="M115 1219v227h213v-227l-115 -256h-98l73 256h-73zM412 1219v227h215v-227l-115 -256h-100l75 256h-75z" />
    <glyph glyph-name="ellipsis" unicode="&#x2026;" horiz-adv-x="1265" 
d="M115 0v227h213v-227h-213zM516 0v227h213v-227h-213zM898 1v227h213v-227h-213z" />
    <glyph glyph-name="ugrave" horiz-adv-x="582" 
 />
    <glyph glyph-name="uacute" horiz-adv-x="580" 
 />
    <glyph glyph-name="yacute" horiz-adv-x="629" 
 />
  </font>
</defs>
</svg>
