<svg xmlns="http://www.w3.org/2000/svg" xml:space="preserve" width="50px" height="176389px" style="shape-rendering:geometricPrecision; text-rendering:geometricPrecision; image-rendering:optimizeQuality; fill-rule:evenodd; clip-rule:evenodd" viewBox="0 0 7.33067 7.33067" xmlns:xlink="http://www.w3.org/1999/xlink">
<path class="fil0" d="M6.08454 3.81807l-2.26663 0 0 2.26646 0 0.152737 -0.152737 0 -2.41903 0 -0.152737 0 0 -0.152737 0 -2.4192 0 -0.152737 0.152737 0 2.26629 0 0 -2.26646 0 -0.152737 0.152737 0 2.41937 0 0.152737 0 0 0.152737 0 2.4192 0 0.152737 -0.152737 0zm-4.68566 2.11372l2.11355 0 0 -2.11372 -2.11355 0 0 2.11372zm2.41903 -2.4192l2.1139 0 0 -2.11372 -2.1139 0 0 2.11372z"/>
</svg>