<svg xmlns="http://www.w3.org/2000/svg" xml:space="preserve" style="shape-rendering:geometricPrecision; text-rendering:geometricPrecision; image-rendering:optimizeQuality; fill-rule:evenodd; clip-rule:evenodd" viewBox="0 0 50 50" xmlns:xlink="http://www.w3.org/1999/xlink">
  <path class="fil1" d="M32.929 10.5464l-3.94973 0 -0.09331 -0.00472456c-0.333081,-0.0153548 -4.77417,-0.151186 -5.95294,4.48951l-0.0354342 0.113389c-0.111027,0.398044 -0.442927,1.83903 -0.38387,4.75291 0.0106303,0.572853 -0.44529,1.04767 -1.01814,1.0583l-0.0200794 0 0 0.00354342 -4.40447 0 0 2.23472 4.83795 0c0.575215,0 1.04177,0.46655 1.04177,1.04177l0 0.0271662 0 15.1965 3.78555 0 0 -15.2072c0,-0.575215 0.46655,-1.04177 1.04177,-1.04177l0.0271662 0 4.82614 0 0 -2.25125 -4.84385 0c-0.575215,0 -1.04177,-0.46655 -1.04177,-1.04177l0 -0.0271662 0 -2.58079c0,-1.18823 0.44529,-2.35874 1.39256,-3.19734 0.791364,-0.700416 1.91226,-1.15043 3.38515,-1.15043l1.40556 0 0 -2.41543zm-3.94973 -2.08353l4.96433 0 0.0271662 0c0.575215,0 1.04177,0.46655 1.04177,1.04177l0 4.47179 0 0.0271662c0,0.575215 -0.46655,1.04177 -1.04177,1.04177l-2.44732 0c-0.923651,0 -1.58391,0.243315 -2.0103,0.621279 -0.465369,0.412218 -0.68388,1.01578 -0.68388,1.64297l0 1.56619 4.81669 0 0.0271662 0c0.575215,0 1.04177,0.46655 1.04177,1.04177l0 4.30762 0 0.0271662c0,0.575215 -0.46655,1.04177 -1.04177,1.04177l-4.8533 0 0 15.18 0 0.0271662c0,0.575215 -0.46655,1.04177 -1.04177,1.04177l-5.84192 0 -0.0271662 0c-0.575215,0 -1.04177,-0.46655 -1.04177,-1.04177l0 -15.2237 -4.81078 0 -0.0271662 0c-0.575215,0 -1.04177,-0.46655 -1.04177,-1.04177l0 -4.29108 0 -0.0271662c0,-0.575215 0.46655,-1.04177 1.04177,-1.04177l4.40329 0c0.0318908,-2.91978 0.442927,-4.22612 0.480724,-4.34541l0.00236228 -0.0118114c1.54729,-6.0935 7.33015,-6.08169 8.06128,-6.0557l0.00236228 0zm-0.0732307 2.07999l-0.0200794 -0.00118114"/>
</svg>