<svg xmlns="http://www.w3.org/2000/svg" xml:space="preserve" width="50px" height="176389px" style="shape-rendering:geometricPrecision; text-rendering:geometricPrecision; image-rendering:optimizeQuality; fill-rule:evenodd; clip-rule:evenodd" viewBox="0 0 13.0324 13.0324" xmlns:xlink="http://www.w3.org/1999/xlink">
<path d="M8.84428 10.6868l0 -3.26088c0,-0.321409 -0.0778893,-0.585247 -0.221969,-0.760729 -0.128379,-0.156394 -0.318638,-0.246906 -0.561234,-0.246906 -0.182563,0 -0.350964,0.0588018 -0.48827,0.147774 -0.156394,0.101287 -0.272459,0.238286 -0.323872,0.369743l-0.000923588 0.00184718c-0.0147774,0.0369435 -0.0249369,0.087433 -0.031402,0.14408 -0.00708084,0.0621883 -0.00954375,0.137307 -0.00954375,0.214273l0 3.3908 0 0.244443 -0.244443 0 -1.67816 0 -0.244443 0 0 -0.244443 0 -3.99329 0.00123145 0 0.000307863 -0.347885c0.000307863,-0.571701 0.00123145,-1.08029 -0.0181639,-1.51438l-0.0110831 -0.248753 0.2506 -0.00492581 1.53008 -0.029247 0.224432 -0.00400222 0.0215504 0.224432 0.0310941 0.325103c0.135768,-0.124992 0.299858,-0.245675 0.492581,-0.346654 0.306016,-0.159781 0.684379,-0.271227 1.13632,-0.271227l0.000615726 0c0.660366,0 1.23361,0.225356 1.6446,0.69146 0.399298,0.452866 0.636045,1.13047 0.636352,2.04452l0.00123145 0 0 0.00123145 0 3.47362 0 0.244443 -0.244443 0 -1.64861 0 -0.244443 0 0 -0.244443zm0.488886 -3.26088l0 3.01644 1.15972 0 0 -3.22917 0 -0.00123145 0.00123145 0c0,-0.785358 -0.192414,-1.3546 -0.516286,-1.72188 -0.312173,-0.354042 -0.757958,-0.525214 -1.27825,-0.525214l-0.000615726 0c-0.36728,0 -0.669602,0.0880488 -0.910966,0.213965 -0.327566,0.17148 -0.54738,0.413768 -0.665907,0.603719l-0.0720399 0.115756 -0.135152 0 -0.0354042 0 -0.220738 0 -0.0215504 -0.221661 -0.0612647 -0.637584 -1.0572 0.0203189c0.0104673,0.378979 0.00985161,0.811219 0.00923588,1.28625l-0.000307863 0.347885 0.00123145 0 0 3.74885 1.18927 0 0 -3.14636c0,-0.0877409 0.00338649,-0.179176 0.0138538,-0.269688 0.0110831,-0.0954375 0.0307863,-0.187181 0.0624962,-0.267841 0.0865095,-0.220738 0.270304,-0.44363 0.512899,-0.60064 0.212425,-0.137615 0.472262,-0.228434 0.753648,-0.228434 0.396835,0 0.715473,0.156394 0.937442,0.426698 0.217351,0.264762 0.334647,0.635429 0.334647,1.06982z"/>
<path d="M3.22856 4.38581c-0.343267,0 -0.631119,-0.122222 -0.836771,-0.320177 -0.217967,-0.209655 -0.341112,-0.501201 -0.341112,-0.821994 0,-0.32695 0.125916,-0.617573 0.347269,-0.825072 0.210578,-0.197648 0.504895,-0.317407 0.854011,-0.317407 0.347577,0 0.634197,0.118527 0.840773,0.314328 0.217043,0.206576 0.339881,0.496583 0.347885,0.822302l0.00123145 0.00584939c0,0.323564 -0.124992,0.617265 -0.351887,0.827535 -0.209962,0.194877 -0.504587,0.314636 -0.8614,0.314636zm-0.498738 -0.671141c0.116988,0.112678 0.28816,0.182255 0.498738,0.182255 0.226895,0 0.40761,-0.0698849 0.529524,-0.182871 0.1253,-0.116064 0.194877,-0.283542 0.194877,-0.470414l0.000923588 0c-0.00584939,-0.191799 -0.0757343,-0.359584 -0.19734,-0.47534 -0.116988,-0.110831 -0.288467,-0.178253 -0.504587,-0.178253 -0.219506,0 -0.398374,0.0692691 -0.520288,0.183794 -0.122222,0.114525 -0.192106,0.280155 -0.192106,0.469799 0,0.187181 0.0689613,0.35435 0.190259,0.47103z"/>
<path d="M4.02069 10.9014l-1.67816 0 -0.244443 0 0 -0.244443 0 -5.8654 0 -0.244443 0.244443 0 1.67816 0 0.244443 0 0 0.244443 0 5.8654 0 0.244443 -0.244443 0zm-1.43372 -0.488886l1.18927 0 0 -5.37652 -1.18927 0 0 5.37652z"/>
</svg>