<svg xmlns="http://www.w3.org/2000/svg" xml:space="preserve" width="50px" height="176389px" style="shape-rendering:geometricPrecision; text-rendering:geometricPrecision; image-rendering:optimizeQuality; fill-rule:evenodd; clip-rule:evenodd" viewBox="0 0 50 50" xmlns:xlink="http://www.w3.org/1999/xlink">
<path id="_125741968" class="fil0" d="M13.2796 7.41283l14.7217 0 0.243315 0 0.171265 0.171265 9.71842 9.71842 0.171265 0.171265 0 0.243315 0 23.285c0,0.437022 -0.179533,0.836247 -0.464188,1.1209 -0.284655,0.284655 -0.68388,0.464188 -1.1209,0.464188l-23.4409 0c-0.437022,0 -0.836247,-0.179533 -1.1209,-0.464188 -0.284655,-0.284655 -0.464188,-0.68388 -0.464188,-1.1209l0 -32.0042c0,-0.437022 0.179533,-0.836247 0.464188,-1.1209 0.284655,-0.284655 0.68388,-0.464188 1.1209,-0.464188zm14.4784 1.17169l-14.4784 0c-0.112208,0 -0.218511,0.0484267 -0.291741,0.121657 -0.0732307,0.0732307 -0.121657,0.179533 -0.121657,0.291741l0 32.0042c0,0.112208 0.0484267,0.218511 0.121657,0.291741 0.0732307,0.0732307 0.179533,0.121657 0.291741,0.121657l23.4409 0c0.112208,0 0.218511,-0.0484267 0.291741,-0.121657 0.0732307,-0.0732307 0.121657,-0.179533 0.121657,-0.291741l0 -23.0417 -9.37589 -9.37589z"/>
<polygon points="16.0895,22.4157 33.9105,22.4157 33.9105,23.5874 16.0895,23.5874 "/>
<polygon points="16.0895,25.9177 33.9105,25.9177 33.9105,27.0894 16.0895,27.0894 "/>
<polygon points="16.0895,18.9136 23.7137,18.9136 23.7137,20.0853 16.0895,20.0853 "/>
<polygon points="16.0895,15.4115 23.7137,15.4115 23.7137,16.5832 16.0895,16.5832 "/>
<path d="M28.5871 7.99868l0 7.71875c0,0.387414 0.159454,0.741756 0.415761,0.998063 0.256307,0.256307 0.610649,0.415761 0.998063,0.415761l7.71875 0 0 1.17169 -7.71875 0c-0.712227,0 -1.36067,-0.291741 -1.82722,-0.758292 -0.46655,-0.46655 -0.758292,-1.115 -0.758292,-1.82722l0 -7.71875 1.17169 0z"/>
<path d="M16.1544 36.8303l0 -6.75848 2.18865 0c0.82916,0 1.3713,0.0354342 1.62289,0.102759 0.386233,0.100397 0.712227,0.32127 0.973259,0.660257 0.261032,0.340168 0.392138,0.779552 0.392138,1.31579 0,0.415761 -0.0755929,0.765378 -0.226779,1.04649 -0.151186,0.283473 -0.341349,0.505528 -0.574034,0.667344 -0.231503,0.160635 -0.467731,0.266938 -0.706321,0.318908 -0.325995,0.0649627 -0.79845,0.0980346 -1.41619,0.0980346l-0.889398 0 0 2.5489 -1.36422 0zm1.36422 -5.61396l0 1.91581 0.74648 0c0.537419,0 0.897666,-0.034253 1.07838,-0.105121 0.181895,-0.0708684 0.323632,-0.180714 0.426391,-0.3319 0.102759,-0.151186 0.154729,-0.325995 0.154729,-0.525607 0,-0.245677 -0.0720495,-0.448833 -0.21733,-0.608287 -0.142918,-0.159454 -0.327176,-0.259851 -0.546868,-0.300009 -0.164178,-0.0307096 -0.491354,-0.0448833 -0.982708,-0.0448833l-0.659076 0zm4.92771 -1.14452l2.49457 0c0.561041,0 0.989795,0.042521 1.28508,0.129925 0.396863,0.115752 0.73585,0.323632 1.01814,0.622461 0.283473,0.297647 0.498441,0.662619 0.646083,1.09374 0.146461,0.432297 0.220873,0.964991 0.220873,1.59808 0,0.556317 -0.0696872,1.03586 -0.207881,1.43863 -0.167722,0.491354 -0.408674,0.889398 -0.724039,1.19295 -0.236228,0.231503 -0.555136,0.411037 -0.957904,0.539781 -0.300009,0.0956723 -0.702778,0.142918 -1.20831,0.142918l-2.56662 0 0 -6.75848zm1.36422 1.14452l0 4.47534 1.01814 0c0.380327,0 0.656714,-0.0212605 0.825617,-0.0649627 0.220873,-0.0555136 0.405131,-0.147642 0.551592,-0.27993 0.146461,-0.132288 0.264575,-0.350798 0.356704,-0.65317 0.0909477,-0.302372 0.138193,-0.715771 0.138193,-1.23783 0,-0.523245 -0.0472456,-0.92247 -0.138193,-1.2024 -0.0921289,-0.27993 -0.222054,-0.499622 -0.387414,-0.654351 -0.166541,-0.158273 -0.376784,-0.263394 -0.63191,-0.318908 -0.190163,-0.0437022 -0.563404,-0.0637815 -1.1209,-0.0637815l-0.61183 0zm5.46631 5.61396l0 -6.75848 4.63361 0 0 1.14452 -3.26821 0 0 1.59808 2.82174 0 0 1.14452 -2.82174 0 0 2.87135 -1.3654 0z"/>
</svg>