<svg xmlns="http://www.w3.org/2000/svg" xml:space="preserve" width="50px" height="176389px" style="shape-rendering:geometricPrecision; text-rendering:geometricPrecision; image-rendering:optimizeQuality; fill-rule:evenodd; clip-rule:evenodd" viewBox="0 0 50 50" xmlns:xlink="http://www.w3.org/1999/xlink">
  <path d="M15.0855 37.4976l-6.10531 0c-0.413399,0 -0.792545,-0.168903 -1.06421,-0.440565 -0.271662,-0.271662 -0.440565,-0.648446 -0.440565,-1.06303l0 -14.1831c0,-0.41458 0.168903,-0.791364 0.440565,-1.06303 0.271662,-0.271662 0.650808,-0.440565 1.06421,-0.440565l6.10531 0 0 1.17169 -6.10531 0c-0.0909477,0 -0.17599,0.0389776 -0.235047,0.0980346 -0.059057,0.059057 -0.0980346,0.144099 -0.0980346,0.233866l0 14.1831c0,0.0897666 0.0389776,0.174809 0.0980346,0.233866 0.059057,0.059057 0.144099,0.0980346 0.235047,0.0980346l6.10531 0 0 1.17169zm19.8278 -17.1903l6.10649 0c0.413399,0 0.792545,0.168903 1.06421,0.440565 0.271662,0.271662 0.440565,0.648446 0.440565,1.06303l0 14.1831c0,0.41458 -0.168903,0.791364 -0.440565,1.06303 -0.271662,0.271662 -0.650808,0.440565 -1.06421,0.440565l-6.10649 0 0 -1.17169 6.10649 0c0.0909477,0 0.17599,-0.0389776 0.235047,-0.0980346 0.059057,-0.059057 0.0980346,-0.144099 0.0980346,-0.233866l0 -14.1831c0,-0.0897666 -0.0389776,-0.174809 -0.0980346,-0.233866 -0.059057,-0.059057 -0.144099,-0.0980346 -0.235047,-0.0980346l-6.10649 0 0 -1.17169z"/>
  <path d="M16.0044 6.91321l17.9899 0c0.41458,0 0.791364,0.168903 1.06303,0.440565 0.270481,0.270481 0.441746,0.649627 0.441746,1.06303l0 14.176c0,0.413399 -0.171265,0.791364 -0.441746,1.06184 -0.270481,0.270481 -0.649627,0.441746 -1.06303,0.441746l-17.9899 0c-0.412218,0 -0.78782,-0.168903 -1.06184,-0.440565l-0.00236228 -0.00236228c-0.2693,-0.271662 -0.440565,-0.648446 -0.440565,-1.06066l0 -14.176c0,-0.41458 0.168903,-0.791364 0.440565,-1.06303 0.271662,-0.271662 0.650808,-0.440565 1.06421,-0.440565zm17.9899 1.17169l-17.9899 0c-0.0909477,0 -0.17599,0.0389776 -0.235047,0.0980346 -0.059057,0.059057 -0.0980346,0.144099 -0.0980346,0.233866l0 14.176c0,0.0909477 0.0389776,0.174809 0.0968534,0.235047 0.0602381,0.0578758 0.14528,0.0968534 0.236228,0.0968534l17.9899 0c0.0885855,0 0.173628,-0.0389776 0.233866,-0.0992157 0.0602381,-0.0602381 0.0992157,-0.144099 0.0992157,-0.232684l0 -14.176c0,-0.0885855 -0.0389776,-0.173628 -0.0992157,-0.233866 -0.059057,-0.059057 -0.144099,-0.0980346 -0.233866,-0.0980346z"/>
  <path d="M16.0044 30.7392l17.9899 0c0.200794,0 0.394501,0.0389776 0.576396,0.113389 0.185439,0.0755929 0.349617,0.18662 0.488992,0.325995l0.00236228 0.00472456c0.139374,0.140556 0.24922,0.305915 0.323632,0.48663 0.0755929,0.183077 0.113389,0.374421 0.113389,0.574034l0 9.33809c0,0.41458 -0.168903,0.791364 -0.440565,1.06303 -0.271662,0.271662 -0.650808,0.440565 -1.06421,0.440565l-17.9899 0c-0.413399,0 -0.792545,-0.168903 -1.06421,-0.440565 -0.271662,-0.271662 -0.440565,-0.648446 -0.440565,-1.06303l0 -9.33927c0,-0.41458 0.168903,-0.791364 0.440565,-1.06303 0.271662,-0.271662 0.650808,-0.440565 1.06421,-0.440565zm17.9899 1.17169l-17.9899 0c-0.0909477,0 -0.17599,0.0389776 -0.235047,0.0980346 -0.059057,0.059057 -0.0980346,0.144099 -0.0980346,0.233866l0 9.33927c0,0.0897666 0.0389776,0.174809 0.0980346,0.233866 0.059057,0.059057 0.144099,0.0980346 0.235047,0.0980346l17.9899 0c0.0909477,0 0.17599,-0.0389776 0.235047,-0.0980346 0.059057,-0.059057 0.0980346,-0.144099 0.0980346,-0.233866l0 -9.33809c0,-0.0519701 -0.00826798,-0.0968534 -0.0212605,-0.129925 -0.0141737,-0.034253 -0.0401587,-0.0720495 -0.0744118,-0.107484l-0.00118114 0.00118114c-0.0366153,-0.0366153 -0.0732307,-0.0626004 -0.10394,-0.0755929 -0.0330719,-0.0129925 -0.0779552,-0.0212605 -0.132288,-0.0212605z"/>
  <polygon points="18.0407,34.4905 31.9581,34.4905 31.9581,35.6621 18.0407,35.6621 "/>
  <polygon points="18.0407,38.1626 31.9581,38.1626 31.9581,39.3343 18.0407,39.3343 "/>
  <polygon points="12.0606,23.5767 12.0606,26.1457 10.8889,26.1457 10.8889,23.5767 "/>
</svg>