<svg xmlns="http://www.w3.org/2000/svg" xml:space="preserve" style="shape-rendering:geometricPrecision; text-rendering:geometricPrecision; image-rendering:optimizeQuality; fill-rule:evenodd; clip-rule:evenodd"
viewBox="0 0 50 50" xmlns:xlink="http://www.w3.org/1999/xlink">
  <path d="M40.5367 15.5899c-0.598838,0.0885855 -1.01342,0.118114 -1.01578,0.118114l0 -0.00236228c-0.357885,0.050789 -0.732307,-0.0874043 -0.968534,-0.393319 -0.349617,-0.453558 -0.265756,-1.10673 0.187801,-1.45635 0.408674,-0.316545 0.754748,-0.610649 1.04767,-0.88113 -0.988614,0.251583 -1.83667,0.302372 -2.39771,0.294104l-0.0318908 0c-0.263394,-0.00354342 -0.525607,-0.107484 -0.724039,-0.309459 -0.591751,-0.6012 -1.30634,-1.08901 -2.0977,-1.42091 -0.759473,-0.317727 -1.60044,-0.494897 -2.48276,-0.494897 -1.77407,0 -3.38042,0.719314 -4.54266,1.88156l-0.00236228 -0.00236228c-1.2024,1.2024 -1.87919,2.84182 -1.87919,4.54266 0,0.276387 0.0177171,0.548049 0.0496079,0.810262l-0.00354342 0c0.0318908,0.251583 0.0791364,0.49726 0.135831,0.732307 0.0259851,0.0814986 0.042521,0.167722 0.0472456,0.256307 0.0307096,0.572853 -0.408674,1.06421 -0.981527,1.09492 -7.10101,0.402769 -13.0835,-4.66314 -15.454,-7.0077 -1.34296,3.99461 2.03983,7.09274 2.33748,7.35614 0.199613,0.158273 0.341349,0.390957 0.380327,0.662619 0.0826798,0.568128 -0.311821,1.09728 -0.879949,1.17996 -0.6638,0.0980346 -1.34059,-0.0283473 -1.93471,-0.225598 0.809081,3.82335 4.44108,4.70802 4.70684,4.76708 0.318908,0.0626004 0.604743,0.274024 0.747661,0.592932 0.235047,0.523245 0.00236228,1.14098 -0.520883,1.37603 -0.563404,0.255126 -1.24138,0.341349 -1.86266,0.349617 1.76817,2.97647 5.08599,2.9434 5.09662,2.9434 0,0.00472456 0.688604,0.266938 0.695691,0.272843 0.424029,0.38387 0.457101,1.04058 0.0732307,1.46461 -2.20283,2.43669 -5.23127,3.29774 -7.69394,3.55287 5.5797,2.20873 11.4842,1.01106 11.7216,0.961448 17.495,-4.09029 16.3482,-20.6924 16.347,-20.7384l0.00236228 0c-0.0118114,-0.297647 0.102759,-0.598838 0.340168,-0.813805 0.620098,-0.562222 1.13153,-1.04767 1.55674,-1.46343zm-17.7832 25.0449c-0.737031,0.147642 -10.0704,1.88156 -16.921,-3.26939 -0.458282,-0.343712 -0.551592,-0.99452 -0.207881,-1.4528 0.242134,-0.323632 0.637815,-0.46655 1.00987,-0.400406l0 -0.00236228c0.0141737,0.00236228 4.88519,0.868138 8.51838,-1.47879 -1.85793,-0.585845 -4.31707,-2.01502 -5.40017,-5.51002 -0.129925,-0.426391 0.0271662,-0.872862 0.361429,-1.12917 -1.57682,-1.26264 -3.07923,-3.37452 -3.02372,-6.83171 0.00826798,-0.572853 0.481905,-1.02995 1.05476,-1.02169l0.085042 0.00472456c-1.17642,-2.06463 -2.00794,-5.11079 -0.00118114,-8.542 0.289379,-0.493716 0.926013,-0.660257 1.41973,-0.370878 0.0307096,0.0177171 0.268119,0.225598 0.2693,0.224417 0.016536,0.0200794 6.04625,7.14708 13.6681,7.43764 -0.0259851,-0.272843 -0.0401587,-0.54923 -0.0401587,-0.826798 0,-2.34456 0.95318,-4.47179 2.49339,-6.012l-0.00236228 -0.00236228c1.53902,-1.53902 3.66626,-2.49102 6.01672,-2.49102 1.15988,0 2.26897,0.235047 3.28121,0.657895 0.907115,0.380327 1.73746,0.913021 2.45441,1.56855 0.501984,-0.0224417 1.17405,-0.106303 1.92171,-0.344893l0 -0.00118114c0.662619,-0.212605 1.39611,-0.550411 2.13314,-1.07838 0.46655,-0.334262 1.11854,-0.225598 1.4528,0.240952 0.131106,0.183077 0.194888,0.395682 0.193707,0.605925l0.00118114 0c0,0.00354342 0.0555136,0.904753 -0.927195,2.31503l0.355523 -0.205518c0.459463,-0.343712 1.11263,-0.248039 1.45635,0.211424 0.261032,0.348436 0.268119,0.807899 0.0566947,1.15988 -0.242134,0.46655 -1.06539,1.73864 -3.70287,4.17297 0.0401587,2.93041 -0.582302,18.31 -17.9769,22.372z"/>
</svg>